<?xml version="1.0" encoding="iso-8859-1"?>
<!-- Generator: Adobe Illustrator 19.0.0, SVG Export Plug-In . SVG Version: 6.00 Build 0)  -->
<svg version="1.1" id="Layer_1" xmlns="http://www.w3.org/2000/svg" xmlns:xlink="http://www.w3.org/1999/xlink" x="0px" y="0px"
	 viewBox="0 0 512.002 512.002" style="enable-background:new 0 0 512.002 512.002;" xml:space="preserve">
<path style="fill:#CCE4F7;" d="M503.625,210.759h-52.87L352.037,54.418l-76.638-32.309l-84.213,47.679l-18.691,69.856l-82.664,26.61
	l-6.347,62.922L6.832,305.341l2.441,109.251l31.247,5.972l0.027,0.009l67.837,21.474l33.2,38.57l92.764,9.277l13.556-47.589
	l1.088,0.228l0.005,0.001l137.499,28.897l64.076-86.546l22.003-65.832l-0.001,0.001L503.625,210.759z M247.905,442.303l0.001-0.003
	h0.001L247.905,442.303z"/>
<polygon style="fill:#ACD4F3;" points="191.959,69.788 276.172,22.11 352.81,54.418 303.609,122.773 240.468,122.773 "/>
<polygon style="fill:#8EC1ED;" points="451.346,210.471 369.836,278.09 303.609,122.773 352.81,54.418 "/>
<polygon style="fill:#ACD4F3;" points="451.27,210.759 504.397,210.759 473.345,319.063 369.76,278.378 "/>
<polygon style="fill:#8EC1ED;" points="240.468,122.773 132.592,291.67 191.959,69.788 "/>
<polygon style="fill:#ACD4F3;" points="173.269,139.644 90.604,166.254 158.327,195.485 "/>
<polygon style="fill:#CCE4F7;" points="90.604,166.254 84.256,229.176 7.604,305.341 132.592,291.67 158.327,195.485 "/>
<polygon style="fill:#ACD4F3;" points="281.991,325.358 132.592,291.67 94.64,345.249 140.892,406.405 "/>
<polygon style="fill:#8EC1ED;" points="281.991,325.358 235.121,489.893 142.357,480.616 140.892,406.405 "/>
<polygon style="fill:#CCE4F7;" points="142.357,480.616 109.157,442.046 41.292,420.564 94.64,345.249 140.892,406.405 "/>
<g>
	<polygon style="fill:#8EC1ED;" points="41.292,420.564 10.046,414.592 7.604,305.341 132.592,291.67 	"/>
	<polygon style="fill:#8EC1ED;" points="413.164,387.113 261.884,395.942 281.991,325.358 369.836,278.09 	"/>
</g>
<polygon style="fill:#ACD4F3;" points="451.346,384.884 387.269,471.431 248.678,442.303 261.884,395.942 "/>
<path d="M510.47,206.184c-1.437-1.906-3.685-3.027-6.072-3.027H455.72L359.241,50.359c-0.03-0.048-0.068-0.09-0.099-0.137
	c-0.096-0.145-0.2-0.285-0.305-0.424c-0.077-0.1-0.153-0.202-0.234-0.298c-0.113-0.132-0.232-0.257-0.354-0.381
	c-0.087-0.089-0.17-0.18-0.262-0.265c-0.132-0.123-0.273-0.235-0.413-0.349c-0.09-0.073-0.176-0.15-0.27-0.218
	c-0.162-0.119-0.335-0.225-0.507-0.332c-0.08-0.05-0.156-0.105-0.237-0.152c-0.257-0.145-0.521-0.277-0.796-0.393l-0.004-0.002
	c-0.002-0.001-0.004-0.002-0.006-0.003l-76.628-32.305c-2.173-0.916-4.649-0.773-6.7,0.39l-84.173,47.656
	c-0.002,0.001-0.004,0.002-0.006,0.003l-0.033,0.019c-0.269,0.152-0.524,0.321-0.77,0.503c-0.072,0.053-0.137,0.114-0.207,0.169
	c-0.176,0.14-0.349,0.284-0.511,0.438c-0.082,0.078-0.159,0.162-0.238,0.243c-0.139,0.145-0.274,0.293-0.4,0.447
	c-0.076,0.093-0.15,0.188-0.222,0.284c-0.119,0.16-0.23,0.325-0.337,0.494c-0.062,0.098-0.125,0.196-0.182,0.297
	c-0.112,0.197-0.21,0.399-0.303,0.605c-0.036,0.081-0.079,0.159-0.114,0.242c-0.12,0.291-0.223,0.591-0.306,0.897
	c-0.003,0.011-0.008,0.02-0.011,0.031l-17.62,65.853l-78.718,25.341c-0.059,0.019-0.112,0.049-0.17,0.07
	c-0.26,0.09-0.516,0.195-0.766,0.313c-0.106,0.051-0.211,0.104-0.314,0.16c-0.09,0.049-0.185,0.087-0.273,0.139
	c-0.126,0.074-0.241,0.162-0.362,0.242c-0.09,0.061-0.182,0.118-0.27,0.181c-0.28,0.205-0.549,0.422-0.796,0.661l0,0
	c-0.248,0.239-0.473,0.499-0.685,0.768c-0.066,0.084-0.125,0.171-0.188,0.259c-0.142,0.197-0.275,0.398-0.397,0.607
	c-0.06,0.101-0.118,0.203-0.172,0.307c-0.119,0.227-0.224,0.46-0.32,0.7c-0.034,0.085-0.074,0.166-0.105,0.252
	c-0.117,0.322-0.211,0.653-0.283,0.991c-0.018,0.085-0.026,0.172-0.042,0.259c-0.033,0.188-0.072,0.374-0.091,0.566l-6.073,60.211
	L2.245,299.947c-0.025,0.024-0.044,0.054-0.068,0.079c-0.248,0.254-0.484,0.521-0.694,0.807c-0.007,0.009-0.015,0.018-0.022,0.027
	c-0.208,0.285-0.39,0.588-0.558,0.901c-0.027,0.052-0.057,0.103-0.084,0.156c-0.154,0.304-0.287,0.619-0.399,0.945
	c-0.018,0.052-0.032,0.103-0.05,0.156c-0.21,0.652-0.333,1.34-0.358,2.052c-0.003,0.077-0.005,0.153-0.006,0.23
	c0,0.071-0.007,0.14-0.005,0.211l2.44,109.251c0.08,3.585,2.653,6.626,6.174,7.299l30.807,5.888l65.378,20.695l31.79,36.933
	c0.024,0.028,0.052,0.052,0.077,0.08c0.126,0.142,0.258,0.277,0.392,0.409c0.05,0.049,0.096,0.099,0.148,0.146
	c0.187,0.171,0.38,0.335,0.584,0.488c0.039,0.028,0.079,0.053,0.118,0.081c0.168,0.122,0.34,0.237,0.518,0.345
	c0.068,0.042,0.138,0.078,0.207,0.117c0.154,0.087,0.31,0.169,0.471,0.245c0.076,0.037,0.153,0.07,0.231,0.103
	c0.159,0.069,0.321,0.132,0.486,0.19c0.079,0.028,0.158,0.057,0.238,0.082c0.167,0.053,0.338,0.097,0.51,0.139
	c0.079,0.019,0.157,0.042,0.237,0.058c0.186,0.039,0.375,0.066,0.566,0.091c0.066,0.008,0.132,0.022,0.199,0.029
	c0.009,0.001,0.017,0.003,0.026,0.004l92.764,9.276c0.255,0.025,0.51,0.039,0.761,0.039c3.363,0,6.37-2.228,7.308-5.522
	l11.615-40.773l131.656,27.669c0.522,0.109,1.045,0.163,1.565,0.163c2.379,0,4.659-1.119,6.11-3.08l64.076-86.546
	c0.01-0.013,0.016-0.028,0.026-0.042c0.101-0.139,0.185-0.29,0.277-0.436c0.107-0.169,0.22-0.336,0.313-0.512
	c0.071-0.135,0.126-0.279,0.189-0.419c0.091-0.202,0.184-0.401,0.257-0.609c0.011-0.033,0.029-0.064,0.041-0.097l22-65.821
	c0.018-0.053,0.028-0.106,0.045-0.16c0.016-0.053,0.039-0.102,0.054-0.155l31.053-108.304
	C512.365,210.561,511.908,208.09,510.47,206.184z M195.719,85.155l35.198,38.447l-78.274,122.551l3.842-14.355l9.19-34.346
	l7.323-27.37L195.719,85.155z M142.915,396.474l-36.73-48.565l29.979-47.637l125.119,28.213L142.915,396.474z M289.304,327.441
	c0.041-0.144,0.057-0.289,0.089-0.433c0.044-0.197,0.093-0.391,0.122-0.592c0.027-0.194,0.033-0.386,0.046-0.58
	c0.011-0.182,0.03-0.363,0.028-0.546c-0.002-0.218-0.027-0.432-0.048-0.648c-0.013-0.14-0.01-0.278-0.03-0.418
	c-0.003-0.023-0.012-0.046-0.016-0.069c-0.035-0.221-0.095-0.436-0.15-0.653c-0.039-0.152-0.065-0.308-0.113-0.456
	c-0.064-0.2-0.152-0.39-0.232-0.585c-0.063-0.153-0.115-0.311-0.188-0.459c-0.092-0.188-0.208-0.362-0.315-0.541
	c-0.084-0.141-0.157-0.288-0.25-0.423c-0.115-0.166-0.252-0.317-0.381-0.475c-0.108-0.133-0.207-0.274-0.324-0.399
	c-0.118-0.126-0.256-0.236-0.382-0.355c-0.15-0.14-0.294-0.287-0.455-0.415c-0.01-0.008-0.019-0.018-0.029-0.026
	c-0.133-0.103-0.277-0.182-0.415-0.277c-0.165-0.113-0.324-0.233-0.499-0.333c-0.191-0.108-0.389-0.192-0.587-0.283
	c-0.146-0.067-0.285-0.146-0.435-0.204c-0.272-0.105-0.551-0.182-0.83-0.255c-0.083-0.021-0.161-0.056-0.245-0.075l-0.027-0.006
	c-0.004-0.001-0.008-0.002-0.011-0.003L144.83,286.634l99.804-156.258h53.95l56.66,132.876l46.935,116.883l-28.583,1.668
	l-101.464,5.921L289.304,327.441z M445.765,377.594l-27.574,1.609l-35.104-87.421l80.757,31.72L445.765,377.594z M372.83,265.726
	l-60.546-141.991l40.112-55.728l88.952,140.877L372.83,265.726z M276.664,30.568l64.402,27.15l-41.353,57.452h-55.896
	l-39.798-43.471L276.664,30.568z M162.317,151.158l-5.169,19.319l-3.89,14.538l-41.061-17.723L162.317,151.158z M89.617,234.57
	c1.249-1.242,2.03-2.878,2.206-4.631l5.304-52.588l52.158,22.512l-22.693,84.814l-98.214,10.742L89.617,234.57z M15.362,312.142
	l101.256-11.074L37.916,412.177l-20.406-3.899L15.362,312.142z M111.452,434.797l-57.504-18.203l42.947-55.756l36.442,48.184
	l1,50.621l-19.416-22.557C113.999,436.016,112.798,435.223,111.452,434.797z M229.549,481.694l-79.723-7.972l-1.242-62.965
	l120.968-69.483L229.549,481.694z M384.06,462.986l-123.722-26.002l19.168-34.454l156.057-9.108L384.06,462.986z M468.341,308.929
	l-83.814-32.921l69.486-57.643h40.294L468.341,308.929z"/>
<g>
</g>
<g>
</g>
<g>
</g>
<g>
</g>
<g>
</g>
<g>
</g>
<g>
</g>
<g>
</g>
<g>
</g>
<g>
</g>
<g>
</g>
<g>
</g>
<g>
</g>
<g>
</g>
<g>
</g>
</svg>
