<?xml version="1.0" encoding="UTF-8" standalone="no"?>
<!-- Created with Inkscape (http://www.inkscape.org/) -->

<svg
   xmlns:dc="http://purl.org/dc/elements/1.1/"
   xmlns:cc="http://creativecommons.org/ns#"
   xmlns:rdf="http://www.w3.org/1999/02/22-rdf-syntax-ns#"
   xmlns:svg="http://www.w3.org/2000/svg"
   xmlns="http://www.w3.org/2000/svg"
   xmlns:sodipodi="http://sodipodi.sourceforge.net/DTD/sodipodi-0.dtd"
   xmlns:inkscape="http://www.inkscape.org/namespaces/inkscape"
   id="svg2"
   version="1.1"
   inkscape:version="0.48.2 r9819"
   width="600"
   height="400"
   sodipodi:docname="waterfall.bmp">
  <metadata
     id="metadata8">
    <rdf:RDF>
      <cc:Work
         rdf:about="">
        <dc:format>image/svg+xml</dc:format>
        <dc:type
           rdf:resource="http://purl.org/dc/dcmitype/StillImage" />
        <dc:title></dc:title>
      </cc:Work>
    </rdf:RDF>
  </metadata>
  <defs
     id="defs6" />
  <sodipodi:namedview
     pagecolor="#ffffff"
     bordercolor="#666666"
     borderopacity="1"
     objecttolerance="10"
     gridtolerance="10"
     guidetolerance="10"
     inkscape:pageopacity="0"
     inkscape:pageshadow="2"
     inkscape:window-width="1553"
     inkscape:window-height="950"
     id="namedview4"
     showgrid="false"
     borderlayer="true"
     inkscape:showpageshadow="false"
     inkscape:zoom="0.82"
     inkscape:cx="202.70252"
     inkscape:cy="90.5"
     inkscape:window-x="313"
     inkscape:window-y="6"
     inkscape:window-maximized="0"
     inkscape:current-layer="svg2" />
  <g
     id="g3013"
     transform="matrix(0.88234971,0,0,2.0970039,24.724071,10.240843)">
    <path
       style="fill:#9ce8fc;fill-opacity:1"
       d="M 0,90.5 0,0 l 312,0 312,0 0,90.5 0,90.5 -312,0 -312,0 0,-90.5 z"
       id="path3037"
       inkscape:connector-curvature="0" />
    <path
       style="fill:#84e0fc;fill-opacity:1"
       d="M 0,90.5 0,0 7.0454545,0 c 6.1818185,0 7.3519065,0.30645161 9.5454545,2.5 1.7735,1.7734999 3.584531,2.5 6.232039,2.5 2.052622,0 4.766299,0.7244236 6.030394,1.6098303 1.452194,1.0171564 3.342798,1.4009418 5.135287,1.0424439 3.464031,-0.6928062 5.111415,1.0131981 5.938803,6.1501298 0.525356,3.261731 0.966064,3.733696 3.738681,4.003841 2.712639,0.264301 4.149147,-0.660847 10.488504,-6.754868 C 62.821992,2.7194354 65.291997,2.2366258 68.5,8.2472982 69.6,10.308312 71.025798,11.995812 71.668441,11.997298 72.311083,11.998784 73.869241,10.3125 75.131014,8.25 76.392787,6.1875 78.004489,3.9053571 78.712573,3.1785714 79.420658,2.4517857 80,1.4392857 80,0.92857143 80,0.41785714 81.125,0 82.5,0 c 2.964844,0 3.344568,2.4092821 0.81948,5.1994718 -1.593889,1.7612282 -1.462437,2.0791621 2.550007,6.1675452 2.326789,2.370825 4.285411,5.17063 4.352493,6.221787 0.161126,2.524802 -5.798456,16.041938 -8.891482,20.167081 C 78.976504,40.895387 78.929158,43 81.212526,43 83.03912,43 93.451018,37.822859 94.204393,36.540013 95.330562,34.622374 106.54313,28.041373 109.79089,27.391822 113.70454,26.609092 117,28.451801 117,31.42291 c 0,1.293898 -1.34293,5.222311 -2.98428,8.729806 -2.57789,5.508814 -2.84983,6.864227 -1.99693,9.953158 C 112.9379,53.434607 116.06367,56 119.20043,56 c 0.60848,0 3.48537,-2.25 6.39309,-5 5.7253,-5.414753 8.36964,-6.104649 13.40946,-3.498459 2.72229,1.40775 3.13251,1.34624 6.5674,-0.98474 l 3.66374,-2.486281 2.78731,1.98474 c 1.53302,1.091607 4.06784,1.991374 5.63294,1.999482 5.35784,0.02776 9.42382,3.918439 11.72385,11.218399 0.3424,1.086705 1.13562,1.50691 2.12669,1.1266 1.27523,-0.489349 1.44505,-1.500471 0.87892,-5.233141 -0.82773,-5.457515 -0.83454,-4.524543 0.10786,-14.776962 0.69231,-7.531686 0.59792,-8.231315 -1.24353,-9.216826 -1.26566,-0.677363 -3.1064,-0.747061 -5.04516,-0.191032 -1.67885,0.481488 -3.2472,0.680685 -3.48523,0.44266 -0.23802,-0.238024 -1.00199,0.253103 -1.69771,1.091394 -3.27435,3.945341 -7.55429,-0.126273 -5.96346,-5.673177 0.42838,-1.493686 0.54017,-3.628612 0.24841,-4.744281 -0.29175,-1.115668 -0.2213,-2.822713 0.15656,-3.793432 0.63702,-1.636513 0.81014,-1.614149 2.3791,0.307332 0.93065,1.139751 2.58472,2.337905 3.67571,2.662564 6.09464,1.813651 14.19457,5.127918 15.59377,6.380536 1.20442,1.078249 2.26001,1.194389 4.18919,0.460913 3.3633,-1.278721 4.35228,-3.296761 5.18313,-10.576289 0.68497,-6.001342 3.02295,-13.8963821 4.81217,-16.25 C 192.51937,-0.36106162 493,-0.61004678 493,1 c 0,1.3415343 3.32409,1.2759111 4.69264,-0.0926407 C 498.48283,0.11717168 499.39834,0.14281549 501,1 c 1.60166,0.8571845 2.51717,0.8828283 3.30736,0.092641 C 505.07298,0.32702062 523.14812,0 564.7,0 l 59.3,0 0,90.5 0,90.5 -231.07143,0 c -203.85305,0 -231.24775,-0.17633 -232.56836,-1.49693 -1.63673,-1.63673 -1.277,-3.93215 1.45845,-9.30624 1.65213,-3.24578 1.63791,-3.3366 -0.81866,-5.22776 -1.375,-1.05853 -3.0625,-1.9346 -3.75,-1.94683 -0.6875,-0.0122 -1.25,-0.91187 -1.25,-1.99919 0,-2.18329 3.01891,-4.44149 7.25,-5.42313 2.30296,-0.53431 2.75,-1.16478 2.75,-3.87843 0,-2.19584 -0.66851,-3.65788 -2.07383,-4.53553 -2.49763,-1.55979 -5.14007,-7.46497 -4.30925,-9.63006 1.11487,-2.9053 -2.44734,-1.64479 -5.07037,1.79418 -1.40538,1.84255 -4.46578,4.13839 -6.80089,5.10187 -7.00907,2.89198 -7.24187,3.10587 -7.32165,6.72698 -0.14233,6.45989 -2.67567,7.57912 -6.95128,3.07107 -1.43451,-1.5125 -3.48687,-4.4375 -4.56079,-6.5 -2.55603,-4.90892 -5.16869,-4.92201 -7.57958,-0.038 -1.16529,2.36067 -3.28369,4.45457 -5.81899,5.75171 -4.79086,2.45114 -5.37078,4.45753 -2.43581,8.4273 1.91366,2.58836 2.13631,3.85581 1.67873,9.55628 -0.29015,3.61467 -1.08411,7.24276 -1.76436,8.06241 C 111.92313,180.79755 104.16445,181 55.877555,181 L 0,181 0,90.5 z m 53.75,81.51096 c 4.974314,-3.0329 4.073374,-4.81774 -3.578601,-7.08952 -3.662158,-1.08725 -4.468105,-1.06466 -5.234688,0.14672 C 43.47626,167.37603 43.856789,169.85679 46,172 c 2.49636,2.49636 3.670925,2.49802 7.75,0.011 z M 181,153.57143 C 181,151.53061 178.1926,149 175.92857,149 c -2.33555,0 -2.41961,0.85393 -0.37187,3.77749 1.73336,2.47471 5.4433,3.01583 5.4433,0.79394 z M 11.816422,133.74145 C 12.068026,131.56158 11.723345,131 10.13381,131 c -2.0929661,0 -3.7455278,3.2012 -2.6051209,5.04642 1.2199212,1.97387 3.9641339,0.49866 4.2877329,-2.30497 z m 167.666438,-2.36717 c 0.89934,-0.89933 1.48976,-2.79827 1.32143,-4.25 -0.24815,-2.14013 -0.76551,-2.57464 -2.80429,-2.35522 -4.34827,0.46799 -5.9605,5.14602 -2.57294,7.46563 1.58194,1.08322 2.25495,0.94044 4.0558,-0.86041 z m -42.3219,-3.45639 4.08128,-2.08212 -0.67484,-6.8485 c -0.61461,-6.23735 -0.46925,-7.086 1.62889,-9.50991 1.26704,-1.46377 3.04681,-3.06206 3.95504,-3.55176 2.52772,-1.36288 7.12582,0.71449 9.05216,4.08968 2.14481,3.75797 2.98524,3.73757 6.258,-0.15188 1.4516,-1.72514 4.03616,-3.4223 5.74345,-3.77148 4.55176,-0.93093 5.53167,-3.12122 3.46993,-7.755936 -1.37073,-3.081334 -1.66711,-6.445772 -1.50655,-17.101885 0.11878,-7.88358 -0.21018,-13.675957 -0.8108,-14.276575 -0.55587,-0.555871 -3.31511,-1.283601 -6.13164,-1.617178 -4.89272,-0.57947 -5.15003,-0.490736 -5.77284,1.99074 -1.2855,5.121824 -8.58847,4.71588 -10.92612,-0.607341 -0.77862,-1.77306 -1.69848,-4.977231 -2.04412,-7.12038 l -0.62844,-3.896634 -5.69734,5.637892 -5.69735,5.637892 -5.35237,-2.033744 c -4.84045,-1.839225 -5.74716,-1.902197 -9.47984,-0.658391 -5.83367,1.943897 -5.82995,4.111887 0.0105,6.101923 2.60787,0.888591 5.79463,2.604907 7.08169,3.814034 1.61737,1.519446 3.38863,2.127799 5.73513,1.969771 5.89644,-0.397104 8.75246,6.616665 4.44736,10.92176 -1.54607,1.546072 -2.79545,1.92681 -4.75,1.447524 -11.67044,-2.861775 -12.93119,-2.864328 -19.57742,-0.03965 -5.96984,2.537218 -6.40917,2.946891 -6.81302,6.353178 -0.30085,2.537468 0.1485,4.429977 1.48252,6.24386 1.52489,2.07341 1.90353,4.23943 1.86164,10.64966 -0.0372,5.69329 0.35301,8.38349 1.33414,9.19776 1.07036,0.88831 1.69168,0.7747 2.72337,-0.49802 2.92135,-3.60383 7.35179,-7.45218 8.57937,-7.45218 0.71336,0 3.05934,1.11251 5.2133,2.47224 3.12214,1.97092 4.36197,3.69457 6.11412,8.5 1.20881,3.31527 2.38046,6.02776 2.60368,6.02776 0.22321,0 2.24242,-0.93695 4.48713,-2.08211 z M 148,96.122445 c 0,-1.687985 2.62291,-3.033818 4.80204,-2.463963 C 156.41381,94.602982 155.4798,97 151.5,97 149.575,97 148,96.6051 148,96.122445 z M 157,128 c 0,-0.55 -0.45,-1 -1,-1 -0.55,0 -1,0.45 -1,1 0,0.55 0.45,1 1,1 0.55,0 1,-0.45 1,-1 z m 30.17172,-14.58286 c 0.43893,-1.6939 1.70485,-3.90045 2.81317,-4.90346 2.91557,-2.63856 2.49039,-4.91379 -1.48489,-7.94588 -1.925,-1.468271 -3.5,-3.289539 -3.5,-4.047263 0,-3.679548 -7.37904,-6.302296 -8.62155,-3.064375 -0.30733,0.800889 1.05679,4.498663 3.03138,8.217278 2.53603,4.77591 3.59017,8.04013 3.59017,11.11716 0,3.54819 0.31283,4.2958 1.68683,4.03119 0.92775,-0.17866 2.04595,-1.71076 2.48489,-3.40465 z M 74.404572,97.300665 c 0.562491,-1.772251 -1.749361,-6.406077 -2.643759,-5.299093 -0.22149,0.274136 -1.366823,3.182043 -2.545184,6.462017 -1.514839,4.216561 -1.813947,6.166631 -1.021026,6.656681 1.140465,0.70485 5.078116,-4.25345 6.209969,-7.819605 z M 16,93 c 0,-2.666667 -0.333333,-3 -3,-3 -2.47619,0 -3,0.407407 -3,2.333333 C 10,95.26713 10.73287,96 13.666667,96 15.592593,96 16,95.47619 16,93 z m 172.31287,-8.087132 c -1.32782,-1.327821 -2.79931,0.491038 -1.75902,2.174264 0.48382,0.782843 0.97617,0.782843 1.75902,0 0.78284,-0.782843 0.78284,-1.391421 0,-2.174264 z M 73.378743,82.873295 c 2.279569,-1.038642 2.455488,-1.605308 2.250729,-7.25 C 75.422825,69.926528 75.243736,69.5 73.058451,69.5 c -1.950843,0 -2.590735,0.829371 -3.775934,4.894033 C 67.859926,79.272831 68.199226,84 69.971999,84 c 0.513642,0 2.046677,-0.507017 3.406744,-1.126705 z M 23.919029,69.25 c 1.177328,-0.9625 3.408859,-3.97287 4.958959,-6.689711 2.351698,-4.121793 2.664525,-5.446435 1.889277,-8 -1.295596,-4.267531 0.474718,-8.400082 4.146827,-9.680186 3.177314,-1.107618 4.364115,-2.991533 3.425481,-5.437574 -0.370649,-0.965896 -1.213346,-1.3083 -2.218615,-0.901466 -0.891527,0.360802 -3.308368,0.895903 -5.370758,1.189113 -2.974257,0.42285 -4.196403,1.281466 -5.909158,4.151466 -1.187648,1.990097 -3.263346,4.820806 -4.612664,6.290464 -2.005656,2.184532 -2.352925,3.370574 -1.903177,6.5 0.302571,2.105342 0.860433,6.190394 1.239693,9.077894 0.379261,2.8875 1.032459,5.25 1.451551,5.25 0.419093,0 1.725256,-0.7875 2.902584,-1.75 z M 72,48.314451 C 72,47.055827 67.669536,43 66.325686,43 64.048615,43 64.874234,45.458791 67.75,47.241774 70.710657,49.077389 72,49.402813 72,48.314451 z M 55.027193,40.94919 c 1.56525,-2.924697 -1.678841,-8.337777 -5.248814,-8.758155 -3.418508,-0.402543 -4.066802,2.988526 -1.445098,7.558965 2.128842,3.71123 5.067739,4.237722 6.693912,1.19919 z M 200.3878,21.680825 c 0.32169,-1.199454 0.59104,-3.447909 0.59855,-4.996566 C 201.00374,13.097935 202.64851,10 204.53518,10 c 2.0792,0 1.82018,-3.739451 -0.33906,-4.8950408 -2.46668,-1.3201266 -3.75108,-0.2973735 -5.52305,4.3979625 -1.69645,4.4952053 -3.01546,13.8213573 -2.08619,14.7506213 1.08969,1.089692 3.20217,-0.340171 3.80092,-2.572718 z M 474,13.940983 c 0,-1.132459 -0.45,-1.780902 -1,-1.440983 -0.55,0.339919 -1,1.266476 -1,2.059017 C 472,15.351558 472.45,16 473,16 c 0.55,0 1,-0.926558 1,-2.059017 z M 127.5,180 c 0.33992,-0.55 1.15398,-1.00992 1.80902,-1.02204 0.65504,-0.0121 3.3971,-2.03713 6.09347,-4.5 2.69637,-2.46288 5.19979,-4.47796 5.56314,-4.47796 0.36336,0 0.76411,1.9988 0.89057,4.44177 0.18349,3.54472 -0.16941,4.65549 -1.7474,5.5 -2.55738,1.36867 -13.44978,1.41897 -12.6088,0.0582 z M 169.93667,11.660248 C 166.65826,10.031837 166.35834,6.6204624 169.17956,3.0485451 171.07628,0.64713019 172.27607,0.10055509 175.75,0.05532923 178.099,0.02474847 180,0.4718351 180,1.054864 c 0,2.2646404 -4.11948,9.938714 -5.82518,10.851577 -1.21298,0.649166 -2.59747,0.568741 -4.23815,-0.246193 z"
       id="path3035"
       inkscape:connector-curvature="0" />
    <path
       style="fill:#7ce0fc;fill-opacity:1"
       d="m 4,180 c 0,-0.55 -0.9,-1 -2,-1 -1.63318152,0 -2,-0.66667 -2,-3.63486 l 0,-3.63486 2.0725801,2.63486 C 3.2124992,175.81431 4.9966665,177 6.0373964,177 c 3.0613991,0 3.7970361,-2.87199 2.6513206,-10.35098 -0.8000943,-5.22285 -0.7433194,-7.95582 0.2389015,-11.5 0.7086262,-2.55696 1.3523045,-5.94998 1.4303965,-7.54003 C 10.63103,142.05003 17,141.28736 17,146.81363 17,149.57714 19.575252,153 21.654427,153 c 1.756351,0 5.538585,-4.7614 5.186078,-6.52868 -0.233047,-1.16838 -1.530638,-1.81321 -4.111721,-2.04331 -2.074169,-0.18491 -4.155427,-0.57366 -4.625018,-0.86388 -0.469592,-0.29022 -0.736945,-3.81466 -0.59412,-7.83208 0.189629,-5.33393 0.829316,-8.23882 2.37128,-10.76823 C 23.08166,119.7134 22.597572,112 19.067325,112 c -0.945283,0 -2.734147,1.0809 -3.975253,2.40199 -1.936716,2.06154 -6.1916236,3.69826 -13.342072,5.13223 -2.04502227,0.41011 -2.50265396,-3.09158 -0.5,-3.82589 1,-0.36666 1,-0.72333 0,-1.78333 C 0.28049142,112.89732 0,99.966667 0,56.3 L 0,0 5.4491087,0 C 10.45321,0 11.106539,0.27312309 13.449109,3.3443909 14.852099,5.1838059 16,7.1390615 16,7.6894033 c 0,1.7640047 3.872476,4.5735097 5.462755,3.9632627 4.464388,-1.7131467 6.21564,3.931862 2.459991,7.929567 -1.14249,1.216125 -2.638177,4.395128 -3.323749,7.064451 -1.095324,4.26472 -1.024308,5.358195 0.585573,9.016336 2.156022,4.899142 1.457929,7.702247 -3.254975,13.069948 -2.909294,3.313503 -2.979947,3.631956 -2.3499,10.591624 0.737632,8.148095 -0.361079,10.883599 -8.1034251,20.175408 -5.955331,7.147162 -6.85797565,9.137767 -5.5959321,12.340728 0.5762995,1.462599 1.1764824,4.226147 1.3337397,6.141217 0.3646372,4.440525 3.5405269,5.786285 10.4886765,4.444485 C 18.064368,101.58413 18.700577,101.09136 20.70878,97 23.694638,90.916843 23.552583,88.642755 20,85.653454 18.35,84.26507 17,82.500382 17,81.731925 c 0,-0.768458 1.815712,-2.856342 4.034916,-4.639743 2.219204,-1.7834 5.195933,-5.121215 6.614955,-7.417364 1.419021,-2.29615 3.540809,-4.938097 4.715084,-5.870993 1.806779,-1.435385 2.101318,-2.613325 1.915687,-7.661321 -0.213557,-5.807397 -0.112555,-6.061635 3.819275,-9.613808 5.824519,-5.262103 7.261205,-4.549927 8.030445,3.98075 0.678217,7.521261 3.79432,17.180173 6.007075,18.61999 C 52.886846,69.617069 55.8625,69.735582 58.75,69.392798 63.51441,68.827199 64,68.951395 64,70.735553 64,73.361207 62.017991,79.135632 60.47684,81 c -0.681974,0.825 -1.440987,4.065947 -1.686697,7.202104 -0.333621,4.258237 -1.343509,7.170228 -3.988235,11.5 -1.94782,3.188846 -4.096303,7.519696 -4.774407,9.624116 -1.118275,3.47045 -1.035517,4.03635 0.890037,6.086 1.971523,2.09859 2.036643,2.6337 0.912938,7.50185 -0.894063,3.8733 -0.923658,6.00072 -0.11334,8.14749 0.920641,2.43906 0.778936,3.30936 -0.882811,5.42193 C 49.745608,137.86757 48.269813,139 47.55478,139 45.520371,139 38.358249,147.32332 36.069539,152.34735 34.417834,155.97307 34,158.9084 34,166.88612 c 0,5.58521 0.441247,10.26855 1,10.61388 0.55,0.33992 1,1.26648 1,2.05902 C 36,180.75362 33.264312,181 20,181 10,181 4,180.625 4,180 z m 177.4769,-0.97448 c 1.54603,-1.70834 1.61797,-2.38228 0.53367,-5 -1.65987,-4.00727 -3.77773,-3.82702 -5.57502,0.47448 -1.68408,4.03059 -3.75469,4.47241 -5.85818,1.25 -1.12024,-1.71615 -1.32874,-4.08883 -0.87871,-10 0.68539,-9.0027 1.5687,-9.5493 6.86801,-4.25 4.12829,4.1283 5.82458,4.3587 7.9711,1.08269 1.73951,-2.65482 1.42315,-6.50909 -1.22281,-14.89747 -0.8353,-2.64813 -1.25178,-5.08173 -0.92552,-5.40799 0.32626,-0.32627 0.14236,-1.13645 -0.40867,-1.8004 -1.1649,-1.40362 4.45151,-14.32175 6.58214,-15.13935 1.50103,-0.57599 3.43709,-5.59486 3.43709,-8.90998 0,-1.25073 1.125,-3.61104 2.5,-5.24513 3.54269,-4.21025 3.24164,-7.74676 -1,-11.747141 -4.05928,-3.828396 -4.20231,-4.489673 -1.5,-6.935229 4.73823,-4.28804 0.37667,-13.857475 -7.00398,-15.366977 -2.57471,-0.526586 -3.72706,-1.426927 -4.44721,-3.474657 -1.30907,-3.722328 0.29151,-6.073374 4.41146,-6.479885 4.54894,-0.448839 7.64617,2.693202 8.52686,8.650257 0.7634,5.163681 2.84956,8.171262 5.66786,8.171262 3.27226,0 2.40421,-6.141449 -1.53436,-10.855618 -1.85866,-2.224665 -3.69195,-5.754742 -4.07398,-7.844614 -0.38203,-2.089872 -1.36412,-4.83888 -2.18243,-6.108905 -0.8183,-1.270026 -1.34751,-3.295026 -1.17602,-4.5 0.24662,-1.732901 1.14793,-2.295379 4.3118,-2.690863 3.79452,-0.474315 4.01593,-0.692394 4.31008,-4.245183 0.18491,-2.23345 -0.31964,-4.644235 -1.25,-5.972506 -2.59028,-3.698134 -1.9611,-7.302375 1.82585,-10.459507 2.5591,-2.133478 3.56248,-3.921699 4.10887,-7.322804 0.78679,-4.897476 2.74915,-7.749166 6.2552,-9.090012 C 212.5231,13.849448 212.57976,12.05675 210,7 c -3.90506,-7.65454735 -11.61061,-7 82.40638,-7 79.88669,0 84.383,0.09370689 83.96977,1.75 -0.63634,2.5505766 1.90557,10.429262 3.63905,11.279263 6.75932,3.314396 8.84628,3.842565 9.94624,2.517195 C 391.4444,13.759601 389.39675,5.4060053 387.06199,3.7178894 382.18631,0.19258364 383.23681,0 407.34221,0 l 23.46024,0 2.11168,3.5790318 c 2.20781,3.7419688 4.33456,4.1025298 4.94348,0.8381019 C 438.60616,0.40417817 439.86356,0 451.59939,0 c 10.78541,0 11.43098,0.11672143 12.8804,2.3288093 0.83924,1.2808452 1.98161,5.6683452 2.5386,9.7499997 2.07416,15.199717 2.50246,16.402798 8.33796,23.421191 1.64784,1.981875 2.82541,2.660625 3.46981,2 1.45216,-1.488726 4.25603,-16.324347 3.58816,-18.985368 -0.47694,-1.900274 0.22735,-2.860029 4.00706,-5.46054 6.40095,-4.4039706 12.48726,-7.0063118 16.4466,-7.03213 2.29507,-0.014966 4.45647,-0.9776588 6.7848,-3.021962 4.7922,-4.2076097 8.63008,-4.0343206 12.85712,0.5805292 2.94065,3.2104495 3.32204,4.321558 3.68989,10.7499998 0.30557,5.340049 1.19716,8.828065 3.49415,13.669471 3.41631,7.200623 5.77799,16.937706 4.83148,19.91991 -0.68287,2.151536 1.67393,8.537897 4.16771,11.293492 1.91688,2.118135 2.25247,2.143278 4.6228,0.346344 1.70895,-1.295552 1.72375,-1.687026 0.25122,-6.645587 -1.39344,-4.692213 -1.40066,-5.519317 -0.0659,-7.556366 2.54168,-3.879094 1.78459,-6.263134 -3.65342,-11.50449 -4.53756,-4.373462 -5.20802,-5.546751 -5.62006,-9.834985 -0.40876,-4.253983 -0.13686,-5.200103 2.1522,-7.489167 C 539.08888,13.820213 539.73996,12 538,12 c -0.55,0 -1,-1.474872 -1,-3.2774938 0,-1.8026215 -0.75279,-4.3522591 -1.67288,-5.6658613 -0.92008,-1.3136022 -1.14508,-2.06217231 -0.5,-1.6634892 C 535.47221,1.7918387 536,1.6414763 536,1.059017 536,0.34802019 542.75259,0 556.54797,0 l 20.54796,0 2.42043,2.75 c 1.33124,1.5125 2.43466,3.2720953 2.45204,3.9102117 0.0506,1.8579161 5.70267,13.3188433 7.60491,15.4208003 2.47024,2.729574 5.28784,2.414379 6.48145,-0.725054 1.43581,-3.776445 -0.51729,-9.026663 -4.03457,-10.845515 -1.90314,-0.9841543 -3.31231,-2.9195282 -4.35601,-5.9826083 L 586.1214,0 605.0607,0 624,0 l 0,90.5 0,90.5 -222.15499,0 c -221.1345,0 -222.14678,-0.009 -220.36811,-1.97448 z m 29.89869,-33.82422 c 1.03931,-1.68165 -3.9516,-8.67942 -6.8984,-9.67225 -1.63745,-0.55169 -3.25163,-1.38344 -3.58706,-1.84835 -0.6946,-0.9627 -9.49753,0.11213 -12.14013,1.4823 -2.32356,1.20475 -2.22106,5.04882 0.21268,7.97622 l 1.96267,2.36078 2.28733,-2.74044 c 3.46881,-4.15598 8.3452,-4.14885 11.55772,0.0169 2.34356,3.03895 5.50774,4.20056 6.60519,2.42485 z m 343.6091,-20.51032 c -0.0343,-2.66719 -1.68254,-3.96082 -3.61561,-2.83772 -1.02799,0.59726 -1.35906,1.09961 -0.73571,1.11633 0.62335,0.0167 1.38056,0.97569 1.68269,2.13103 0.55505,2.1225 2.69696,1.79372 2.66863,-0.40964 z m 6.91103,-31.605368 C 563.77354,91.896585 562.53859,89 560.15383,89 c -2.27779,0 -4.59004,2.485179 -3.6809,3.956195 0.78374,1.268121 3.52126,1.333453 5.42279,0.129417 z m 8.32095,-43.268945 c -1.52752,-1.527513 -2.65464,-0.400386 -1.80743,1.807422 0.50024,1.303582 0.93392,1.432752 1.82354,0.543128 0.88963,-0.889623 0.88579,-1.448644 -0.0161,-2.35055 z m 37.63479,1.296298 c 1.02932,-0.652276 0.55261,-1.448946 -2,-3.342303 -1.8433,-1.367242 -4.81396,-3.190477 -6.60146,-4.051633 -3.20996,-1.546448 -3.25,-1.535447 -3.25,0.892799 0,4.389938 2.79343,7.390011 6.86501,7.372859 1.99924,-0.0084 4.24315,-0.400697 4.98645,-0.871722 z M 493.2677,49.084328 C 493.86293,46.80817 492.31385,45 489.76862,45 c -2.06731,0 -3.27057,2.249564 -2.40699,4.5 0.85048,2.216323 5.29967,1.903187 5.90607,-0.415672 z M 504.74036,33.68821 c 2.24504,-2.245036 0.62925,-5.459004 -3.90823,-7.77385 -3.81619,-1.946874 -4.12012,-1.963705 -5.92729,-0.328243 -2.17453,1.967926 -2.55357,7.348594 -0.65484,9.295783 1.57772,1.617982 8.46205,0.834619 10.49036,-1.19369 z M 76.5,172.91565 C 70.857026,168.75765 64.083648,161.97604 62.43385,158.83242 60.308365,154.7824 62.39188,145.19073 65.570403,144.39297 69.120796,143.50188 71,138.30663 71,129.3823 71,118.61679 74.156178,110 78.099392,110 c 3.092715,0 5.039245,-4.0298 3.887069,-8.04721 -1.57195,-5.481068 -1.211538,-10.439123 0.897593,-12.347861 3.167546,-2.866589 4.594587,-9.823741 3.105763,-15.141301 -1.189217,-4.247463 -1.125872,-4.689902 0.99462,-6.947062 1.375848,-1.464523 3.647908,-2.529589 5.788867,-2.713628 C 94.711583,64.636322 96.659146,63.825 97.101222,63 99.626201,58.287905 101.29822,53.483869 101.48521,50.403964 101.94037,42.907104 106,43.464481 106,51.023833 c 0,3.882344 0.41724,5.129101 2,5.976167 2.68773,1.438431 2.51963,2.652764 -0.47114,3.403399 -3.62592,0.910049 -4.51885,3.399113 -3.6133,10.072149 1.14061,8.405168 5.08149,10.961101 7.91974,5.136494 1.55865,-3.198645 3.27016,-4.053374 6.4955,-3.243865 4.00717,1.005736 6.11994,8.182927 3.13747,10.658159 -1.20877,1.003185 -2.36194,1.02249 -5.46912,0.09156 -3.52732,-1.056813 -4.14888,-0.968164 -5.96826,0.85122 -2.65292,2.652921 -4.15935,2.562057 -8.70882,-0.525294 C 97.792347,81.048481 97.474935,80.997584 96.277665,82.634948 95.574949,83.595969 95,85.279748 95,86.376678 c 0,1.096931 -0.96609,3.022775 -2.146866,4.279653 l -2.146866,2.285234 2.070749,1.779218 c 1.138912,0.978569 3.91657,3.957452 6.172573,6.619737 l 4.10182,4.84052 -0.65636,10.65948 C 101.68722,128.33589 100.54425,131 96.320262,131 c -4.839269,0 -5.664349,10.68812 -1.096469,14.20369 3.819311,2.93946 5.176587,2.20141 8.190377,-4.45369 1.55669,-3.4375 4.01283,-7.76607 5.45809,-9.61905 1.44526,-1.85298 3.33193,-4.53958 4.19261,-5.97023 1.77475,-2.95005 5.04609,-4.05394 9.43513,-3.1838 2.69903,0.53508 3.03091,1.01885 3.30814,4.82206 0.27566,3.7817 -0.004,4.40631 -2.65079,5.9255 -1.70309,0.97744 -3.66681,3.4123 -4.62678,5.73686 -0.91732,2.22126 -2.08322,5.06413 -2.5909,6.31749 -0.50768,1.25335 -2.43302,3.16972 -4.27852,4.25859 -1.84551,1.08888 -4.20298,3.55351 -5.23882,5.47695 -2.21851,4.11952 -2.8658,4.38044 -12.244398,4.93563 -3.940927,0.2333 -7.618159,0.70404 -8.171627,1.0461 C 85.452837,160.83817 85,163.31218 85,165.99392 c 0,5.68639 -1.411358,10.03504 -3.225249,9.9376 C 81.073638,175.89385 78.7,174.53671 76.5,172.91565 z m 30.8228,0.41025 c -0.89293,-0.33681 -0.86863,-1.33535 0.10063,-4.13497 1.47796,-4.269 2.94827,-4.78836 3.36896,-1.19003 0.3331,2.84922 -1.71199,5.98796 -3.46959,5.325 z M 0.09968003,154.69098 C 0.03661357,150.38299 0.36731097,148.10898 1,148.5 c 1.1623876,0.7184 1.1623876,6.87044 0,10.5 -0.57977266,1.81034 -0.82813802,0.62164 -0.90031997,-4.30902 z M 136,141.22251 C 136,139.71366 139.13001,136 140.40172,136 c 1.84063,0 4.9185,3.67285 4.13722,4.93699 C 143.79005,142.14873 136,142.40921 136,141.22251 z m 31.14143,-6.56788 c -3.0547,-3.25687 -5.29167,-16.56375 -3.20678,-19.07589 1.59156,-1.91771 4.93851,-2.07285 5.63373,-0.26114 0.27809,0.72469 0.37647,5.93778 0.21862,11.58466 l -0.287,10.26705 -2.35857,-2.51468 z m -20.72354,-14.008 C 145.30646,117.75028 146.40745,114.5 148.5,114.5 c 1.61755,0 2,0.66667 2,3.4863 0,2.52753 -0.4821,3.57915 -1.75302,3.82391 -0.96417,0.18568 -2.01225,-0.33793 -2.32909,-1.16358 z M 56.732135,65.463949 C 53.033422,62.950609 53,62.866631 53,56.086394 c 0,-4.617622 0.451399,-7.216132 1.388673,-7.994001 1.857393,-1.541499 8.479154,-0.03476 12.532942,2.851792 C 69.702758,52.924533 70,53.652806 70,58.486535 c 0,4.996061 -0.223022,5.488181 -3.368034,7.431906 -4.318165,2.668773 -5.374931,2.620257 -9.899831,-0.454492 z m 54.810575,-5.394851 c -0.31644,-0.511996 -0.0964,-1.226871 0.48887,-1.588613 1.35919,-0.840031 3.96842,0.138409 3.96842,1.48813 0,1.284813 -3.67415,1.367641 -4.45729,0.100483 z M 179,46.468615 c 0,-1.612079 2.66157,-3.140377 3.68563,-2.11632 C 183.39786,45.064525 181.13807,48 179.87756,48 179.3949,48 179,47.310877 179,46.468615 z M 65.712576,37.379243 C 64.290834,35.957501 65.053959,33.313754 67.5,31.186949 68.938719,29.935999 70,27.936062 70,26.475811 70,24.735049 71.610176,22.378251 75.128556,18.969197 77.949261,16.236139 80.784261,14 81.428556,14 c 2.728206,0 3.292367,2.071032 2.036201,7.474882 -1.612967,6.938755 -1.849747,7.260574 -6.329541,8.602753 -2.951673,0.884342 -3.984159,1.822428 -4.708019,4.277563 -0.682308,2.314205 -1.597375,3.222957 -3.464621,3.440712 -1.395583,0.16275 -2.858083,-0.02475 -3.25,-0.416667 z M 49.571429,27.428571 C 46.290517,24.147659 47.595335,20.515776 54.555556,13.555556 58.24934,9.8617708 61.982217,7 63.106582,7 c 2.555435,0 5.308127,6.205037 4.388322,9.892025 -2.089049,8.373838 -13.423236,15.036786 -17.923475,10.536546 z"
       id="path3033"
       inkscape:connector-curvature="0" />
    <path
       style="fill:#5cd8fc;fill-opacity:1"
       d="m 195.97315,178.75 c -1.18562,-2.71108 -4.98281,-17.01653 -5.66744,-21.35132 -0.41183,-2.60762 0.0602,-3.56277 2.96528,-6 1.90029,-1.59427 3.98255,-3.91118 4.62723,-5.14868 1.5265,-2.93019 2.29568,-2.84648 7.32577,0.7973 5.48235,3.9714 9.78871,3.79222 10.91556,-0.45417 0.6757,-2.54627 0.15666,-3.64257 -4.18408,-8.83745 C 208.22901,133.29595 207,131.01221 207,128.54741 c 0,-4.60531 -3.4164,-8.73199 -6.57313,-7.9397 C 199.06955,120.94838 198,120.7761 198,120.21682 c 0,-0.55 1.06803,-1.26806 2.37341,-1.59569 1.45783,-0.36589 2.87154,-1.85433 3.6647,-3.85841 1.75533,-4.43526 3.82453,-6.67849 7.62517,-8.2665 C 215.29501,104.97879 218,100.53881 218,96.095114 l 0,-3.004205 -2.45455,2.454546 C 214.00651,97.0844 211.94689,98 210.02402,98 c -2.30094,0 -3.35138,0.624378 -4.20597,2.5 -0.6265,1.375 -1.7991,2.5 -2.60579,2.5 -1.19017,0 -1.33685,-0.98987 -0.77792,-5.25 0.37884,-2.8875 0.7134,-10.081014 0.74348,-15.985588 0.0541,-10.624565 0.0224,-10.772291 -3.06157,-14.284796 C 195.8852,62.660726 196.10503,61.5 201.24871,61.5 l 4.25129,0 -0.0992,-5 c -0.0546,-2.75 -0.45096,-6.6875 -0.88084,-8.75 l -0.7816,-3.75 3.57413,0 c 2.5598,0 4.01594,-0.630749 5.13085,-2.222506 2.19881,-3.139244 1.94391,-5.067124 -1.03831,-7.85318 -3.59319,-3.356826 -5.67618,-7.707653 -4.9931,-10.429267 0.31605,-1.25925 2.08619,-3.181385 3.93365,-4.27141 2.01418,-1.188397 4.25384,-3.830344 5.59406,-6.598858 1.22927,-2.539347 3.3718,-5.5111674 4.76117,-6.6040467 2.90236,-2.2829946 2.4869,-5.56457697 -0.60222,-4.7567538 -1.03244,0.2699872 -2.48947,0.1029321 -3.23785,-0.37123354 -0.76888,-0.48715259 32.63482,-0.86877949 76.8014,-0.87743219 L 371.8242,0 l 0.6861,4.0609508 c 0.37735,2.2335229 1.81364,6.8460232 3.19176,10.2500002 4.17834,10.320574 4.58703,14.040522 2.10404,19.151255 l -2.14305,4.411046 3.21678,6.534211 c 1.76923,3.593817 3.67836,6.819481 4.2425,7.168143 C 384.45602,52.399868 389,48.126938 389,46.048547 c 0,-0.881553 -1.35,-3.080885 -3,-4.887404 -4.63663,-5.076459 -3.88265,-8.425221 2.51434,-11.167291 l 4.2256,-1.811301 -0.22793,-9.341275 C 392.28918,9.7086641 391.19524,4.8567302 389.06168,3.5381223 388.47776,3.1772363 388,2.1925455 388,1.3499203 c 0,-1.25559056 1.21803,-1.47569457 6.75,-1.21976193 3.7125,0.17175605 7.08061,0.77523425 7.48469,1.34106263 1.09256,1.5299167 0.91673,6.3773372 -0.31481,8.678486 -0.83729,1.564487 -0.56641,3.516879 1.20485,8.684258 2.7314,7.968394 2.74649,7.992442 3.87189,6.171508 0.48833,-0.790134 0.6311,-4.186265 0.31728,-7.546959 -0.3537,-3.787657 -0.13296,-6.928094 0.58071,-8.2615965 0.89801,-1.677943 0.82747,-2.9263124 -0.32062,-5.6740807 L 406.10205,0 416.55103,0 c 7.68953,0 10.45044,0.33010847 10.45455,1.25 0.0218,4.8862351 2.30919,8.850159 6.53661,11.327594 3.90576,2.288926 4.45781,3.03811 4.45781,6.049652 0,2.402858 -0.55078,3.6532 -1.83029,4.154978 C 433.19102,23.95036 426,30.571454 426,32.145928 426,34.873984 428.39573,36 434.2,36 c 5.74165,0 5.8,0.02936 5.8,2.918213 C 440,43.190424 440.95701,45 443.21639,45 c 1.68466,0 1.93111,-0.515746 1.55304,-3.25 -0.24716,-1.7875 -0.63389,-3.925 -0.85941,-4.75 -0.32121,-1.175108 0.88666,-1.608297 5.57666,-2 5.80322,-0.484678 6.05641,-0.626756 8.26223,-4.636345 2.56751,-4.667058 2.26932,-6.480757 -1.38726,-8.437698 -3.27138,-1.750791 -5.76214,-6.563635 -5.50595,-10.639052 0.11109,-1.7672016 -0.486,-4.8596574 -1.32686,-6.8721235 C 448.68798,2.4023153 448,0.58570787 448,0.37787605 448,0.17004422 450.63166,0 453.84813,0 l 5.84812,0 1.84285,4.0867068 c 1.65896,3.6789249 1.72471,4.8972352 0.65892,12.2096582 l -1.18394,8.122951 2.89988,3.040342 c 1.59493,1.672188 3.89803,5.192124 5.118,7.822081 1.21997,2.629956 3.0572,5.230796 4.08274,5.779644 1.02553,0.548848 2.61127,2.447066 3.52386,4.218261 0.9126,1.771196 2.49226,3.808373 3.51035,4.52706 1.37966,0.973914 1.85109,2.577816 1.85109,6.297749 0,3.936427 0.4939,5.456385 2.33742,7.193296 1.8799,1.771189 4.66258,9.078458 4.66258,12.243861 0,0.360784 -1.41743,1.980045 -3.14984,3.598358 l -3.14983,2.942388 1.30175,5.426321 c 1.02517,4.273377 1.05701,6.908346 0.14984,12.401451 -1.79544,10.871822 -1.54703,13.337152 1.6528,16.402782 3.56778,3.41815 4.43994,3.37347 7.60639,-0.38964 2.26784,-2.69517 2.58889,-3.9821 2.58889,-10.37755 0,-8.655878 1.33738,-10.611765 6.04182,-8.836035 4.27448,1.613436 5.2329,-0.14648 3.39872,-6.240986 C 503.6078,84.378969 504.08689,83 508.03534,83 c 1.71237,0 4.52193,-1.069229 6.28138,-2.390494 1.7508,-1.314772 4.60819,-2.69227 6.34974,-3.061107 1.74155,-0.368837 3.42802,-1.352238 3.74771,-2.185336 0.73054,-1.903755 -3.36068,-8.981598 -7.45316,-12.89403 -1.70811,-1.632968 -4.04427,-4.635691 -5.19145,-6.672717 -2.85591,-5.07119 -4.56347,-5.467681 -7.88514,-1.830915 C 502.36,55.63443 500.65321,57 500.09155,57 c -1.9449,0 -3.10271,-3.79587 -2.31468,-7.588679 1.02394,-4.928248 3.40802,-6.45896 6.16866,-3.960619 1.72633,1.562314 2.47717,1.677731 4.60559,0.707962 C 509.94976,45.521399 512.93505,45 515.1851,45 c 3.71747,0 4.63381,0.570648 10.03614,6.25 C 531.85612,58.225113 537,67.975415 537,73.576833 c 0,3.907859 -2.82874,7.274789 -10.25,12.200136 -5.70841,3.788563 -4.819,9.016141 2.76015,16.223031 5.78442,5.50031 9.02582,10.92807 11.04801,18.5 1.40596,5.26452 2.84797,8.06264 5.81631,11.28614 4.42071,4.8007 5.03195,9.0244 2.03918,14.09075 -1.57237,2.66181 -1.53106,2.99417 0.95179,7.65818 2.26183,4.24884 2.42403,5.13847 1.26177,6.92027 -2.03098,3.1136 -2.94489,11.0631 -1.53197,13.32556 0.68153,1.09131 0.91071,3.05924 0.532,4.56817 -0.61655,2.45651 -1.05948,2.65093 -6.0393,2.65093 -3.85437,0 -5.53673,-0.42416 -5.94957,-1.5 -0.7417,-1.93286 -4.03424,-1.93286 -5.63837,0 -0.68469,0.825 -2.81968,1.5 -4.74442,1.5 -3.4451,0 -3.47419,-0.035 -1.87065,-2.25 5.13431,-7.09214 4.97108,-6.61838 3.71964,-10.79532 C 528.29943,165.26738 527.34749,164 526.13417,164 524.32447,164 520,167.88856 520,169.51585 c 0,0.48782 -1.44508,3.27132 -3.21129,6.18555 -2.96043,4.88469 -3.50411,5.2986 -6.95986,5.2986 -3.55423,0 -3.81109,-0.22033 -4.95461,-4.25 -0.66332,-2.3375 -2.41629,-5.6 -3.89549,-7.25 -1.4792,-1.65 -2.96027,-3.77409 -3.29128,-4.7202 -0.61229,-1.75011 -5.28362,-3.51698 -6.3854,-2.4152 -0.99076,0.99076 -3.25586,14.27907 -2.81987,16.54296 l 0.40296,2.09244 -145.96402,0 -145.96402,0 -0.98397,-2.25 z m 298.38346,-50.95356 c 0.75189,-1.192 0.36362,-2.34022 -1.56734,-4.63503 -2.9209,-3.47129 -3.78927,-3.17217 -3.78927,1.30526 0,5.02842 3.07815,6.94186 5.35661,3.32977 z M 457.55718,95.881285 C 460.00073,95.265992 462,94.540249 462,94.268524 c 0,-1.409968 -9.53736,-12.950383 -11.622,-14.062886 -3.06868,-1.637644 -3.71678,-1.202975 -6.36597,4.269508 -2.08493,4.306891 -2.09959,4.568049 -0.41632,7.417589 2.90936,4.925154 6.34452,5.90652 13.96147,3.98855 z M 390.36163,86.5 C 390.04504,85.675 389.38417,85 388.89301,85 388.40186,85 388,85.675 388,86.5 c 0,0.825 0.66088,1.5 1.46862,1.5 0.89459,0 1.24363,-0.586289 0.89301,-1.5 z M 225.4433,76.777494 C 227.37124,74.024971 227.44402,72 225.61501,72 224.18971,72 221,76.122648 221,77.964817 c 0,1.852385 2.84708,1.091598 4.4433,-1.187323 z m 226.65976,-6.693976 c 2.12325,-1.291225 4.20832,-1.744969 6.39096,-1.390775 2.60477,0.422696 3.55959,0.06881 4.87277,-1.806024 3.69818,-5.279889 0.7645,-8.540519 -4.38503,-4.87373 -2.94456,2.096713 -3.17918,2.118324 -5.00997,0.461485 -1.0564,-0.956033 -2.18754,-2.578894 -2.51365,-3.606358 C 450.33617,55.333089 449,57.008471 449,61.95031 c 0,3.565966 -0.46268,5.209236 -1.65449,5.87621 -0.99566,0.557196 -1.40636,1.572512 -1.03139,2.54969 0.80758,2.10452 1.9413,2.047198 5.78894,-0.292692 z M 416.37568,56.777524 c 1.62576,-2.594424 -0.1352,-3.678533 -7.16946,-4.413758 -6.95243,-0.726673 -7.96093,0.375653 -4.11773,4.500846 2.56049,2.748358 9.54416,2.694474 11.28719,-0.08709 z M 226,27.393011 C 226,26.626855 225.6051,26 225.12244,26 c -1.24731,0 -3.22122,2.567887 -2.516,3.273108 C 223.5727,30.239363 226,28.894589 226,27.393011 z m 3.42857,-15.96444 C 231.40835,9.4487964 231.47608,6 229.53518,6 227.92923,6 226,8.965603 226,11.434259 c 0,2.001797 1.42345,1.999436 3.42857,-0.0057 z M 417.48723,9.0206667 C 418.34389,7.6345621 416.20469,4 414.5322,4 c -1.57835,0 -2.9882,3.453161 -2.03773,4.9910514 0.79793,1.2910796 4.20066,1.3112626 4.99276,0.029615 z M 587.75,178.04185 c -1.5125,-1.69203 -2.75,-4.09384 -2.75,-5.33735 0,-1.24351 -1.5941,-5.58724 -3.54244,-9.65275 -1.94834,-4.0655 -3.77739,-9.45281 -4.06455,-11.97179 -0.90104,-7.90378 -1.25938,-8.72081 -5.88093,-13.40867 L 567,133.09445 l 0,-8.11296 c 0,-4.46214 0.47749,-9.00517 1.06109,-10.09564 0.87289,-1.63101 0.52631,-2.59174 -1.95408,-5.41676 -2.7133,-3.09027 -2.91263,-3.76123 -1.99093,-6.70159 0.56334,-1.79712 1.71318,-4.538961 2.5552,-6.092969 2.55049,-4.707081 2.15336,-9.439156 -1.00519,-11.977734 C 563.89104,83.270156 562.3949,80.571803 561.39851,77 c -0.84386,-3.025 -2.21999,-7.966762 -3.05808,-10.981692 -1.06308,-3.824301 -1.32124,-7.373154 -0.85385,-11.737551 l 0.66994,-6.255858 -3.57826,-2.111225 c -4.18804,-2.471004 -4.58355,-5.045273 -1.62364,-10.567827 3.07618,-5.739481 -0.2836,-9.717809 -7.71689,-9.137598 C 542.4523,26.425667 541.5,26.117828 541.5,25 c 0,-0.825 1.01747,-1.644449 2.26103,-1.820997 1.27487,-0.180992 2.90736,-1.570842 3.74289,-3.186588 0.81502,-1.576075 1.94624,-3.152594 2.51381,-3.503375 1.91698,-1.184759 9.68668,7.69149 10.95129,12.51096 0.64943,2.475 1.59708,6.127209 2.10588,8.11602 0.50881,1.98881 0.92932,5.58881 0.93448,8 0.009,4.095442 4.31307,13.729161 6.8288,15.283972 0.48392,0.299075 1.17821,-2.666511 1.54288,-6.590191 0.60706,-6.531773 0.47124,-7.338114 -1.60901,-9.552447 -1.63601,-1.741444 -2.25942,-3.585687 -2.22694,-6.587918 C 568.60773,31.881342 569.89354,26 571.09634,26 c 1.26808,0 3.89864,6.187371 3.91897,9.217881 0.0247,3.683803 1.53905,5.08829 6.14969,5.703596 4.28269,0.571543 4.33872,0.629985 4.64324,4.843628 0.23472,3.247972 0.90428,4.655647 2.8076,5.902754 2.5433,1.666431 6.38416,8.090254 6.38416,10.677468 0,0.783752 0.73964,3.715179 1.64365,6.514283 1.89056,5.853756 1.47382,6.7786 -4.85454,10.773522 -3.37844,2.132713 -3.68254,2.675791 -3.14358,5.613994 C 589.93902,92.298731 596.8249,101 601.11181,101 c 2.32884,0 4.68891,3.5816 7.02385,10.65925 1.88893,5.72575 1.55637,7.79158 -1.7936,11.14154 -2.73338,2.73338 -0.9033,7.19921 2.95021,7.19921 1.04075,0 3.05376,-0.91363 4.47336,-2.03028 1.74254,-1.37069 3.81523,-1.95746 6.37988,-1.80614 l 3.7988,0.22415 0.0215,27.30613 C 623.97808,169.22589 623.59926,181 623.0873,181 c -0.49503,0 -0.68717,-0.81409 -0.42697,-1.80909 0.32565,-1.24531 -0.35443,-2.18614 -2.18228,-3.01896 -2.34741,-1.06955 -2.71451,-0.98373 -3.16525,0.73992 -0.74847,2.86214 -2.61061,3.3226 -15.3128,3.78645 l -11.5,0.41996 -2.75,-3.07643 z m 9.09007,-7.02673 C 597.31693,167.75034 596.04906,160 595.03812,160 c -1.40815,0 -2.99087,11.31395 -1.78827,12.7833 1.48331,1.81235 3.19001,0.9718 3.59022,-1.76818 z M 580.80443,80.287066 c 0.32453,-2.192049 -4.33939,-6.692513 -5.92197,-5.714424 -1.706,1.054369 -0.86857,5.32368 1.34891,6.876864 2.73212,1.913649 4.17183,1.547685 4.57306,-1.16244 z M 17.472927,163.9562 c -0.937156,-1.51635 1.602945,-4.28033 2.817474,-3.0658 1.121509,1.12151 0.248989,4.1096 -1.199999,4.1096 -0.534803,0 -1.262666,-0.46971 -1.617475,-1.0438 z m 71.93007,-9.61825 -1.987505,-2.66204 -4.845825,1.85063 -4.845825,1.85064 -1.861921,-2.29937 c -2.366018,-2.92191 -2.340933,-4.74069 0.142827,-10.35564 1.486607,-3.36072 1.975048,-6.50786 1.889836,-12.17665 -0.119193,-7.92935 1.068596,-10.76428 5.037893,-12.02409 0.917791,-0.29129 2.243541,-2.11929 2.946113,-4.06222 2.658775,-7.35271 14.18154,-11.19162 14.077859,-4.69016 -0.08202,5.14323 -1.698301,11.28822 -3.489734,13.26773 -1.647652,1.82063 -1.932782,1.85141 -3.554625,0.38366 -0.969805,-0.87766 -2.584264,-1.43665 -3.587686,-1.2422 -1.524854,0.2955 -1.838453,1.3918 -1.909972,6.67701 -0.04706,3.47791 -0.542195,6.62076 -1.100296,6.98411 C 84.657809,136.91771 83,140.6881 83,143.37676 c 0,2.22533 0.468091,2.54293 4.150029,2.81574 5.462343,0.40474 8.82974,4.36173 7.045089,8.27861 -1.45909,3.20235 -2.319658,3.17844 -4.792121,-0.13316 z M 31.694934,122.18057 c -4.359864,-2.94193 -5.716121,-5.60161 -6.357195,-12.46672 -0.466865,-4.99955 -0.116528,-7.85833 1.648293,-13.450195 2.086406,-6.610813 2.129743,-7.260275 0.62757,-9.404928 C 25.845766,84.334787 25.433603,80 26.961456,80 c 0.528801,0 1.472799,-1.9125 2.097773,-4.25 1.472926,-5.508965 2.425804,-6.571098 5.387282,-6.004976 2.869263,0.548494 4.877714,2.594267 7.741698,7.88556 7.343138,13.566656 6.995593,12.540426 6.328544,18.686939 -0.848082,7.814647 -1.159997,8.409637 -5.088355,9.706107 C 37.409053,108.01019 33.739269,116 38.84617,116 c 1.049918,0 2.451219,0.65341 3.114004,1.45201 1.227415,1.47895 0.565452,5.54799 -0.902562,5.54799 -0.444186,0 -2.101362,0.24151 -3.682612,0.53668 -1.892123,0.35321 -3.833968,-0.1104 -5.680066,-1.35611 z m 588.209256,-6.35959 c -0.94237,-1.76084 -0.82276,-2.81672 0.62325,-5.5018 1.77144,-3.28935 1.76379,-3.3588 -0.75986,-6.9057 -3.25489,-4.574621 -2.55505,-8.746117 1.54848,-9.229902 L 624,93.867155 624,105.93358 C 624,115.86381 623.74067,118 622.53518,118 c -0.80565,0 -1.98959,-0.98056 -2.63099,-2.17902 z M 541.39404,93.584473 c -0.99183,-2.58468 0.0576,-7.058217 1.73013,-7.375014 2.23212,-0.422796 3.00154,2.131476 1.73581,5.762365 -1.1293,3.239516 -2.58223,3.915543 -3.46594,1.612649 z M 622.25,81.337719 C 621.55826,81.058594 621,79.138816 621,77.039111 c 0,-4.649433 -1.33811,-5.849584 -7.4571,-6.688285 -3.88535,-0.532546 -5.09568,-1.211453 -6.6157,-3.710928 -2.5138,-4.133616 -3.39699,-8.570111 -1.98681,-9.98029 0.6285,-0.628495 2.80794,-1.609932 4.84321,-2.18097 5.34779,-1.500438 5.23381,-3.759997 -0.45355,-8.990888 -6.27849,-5.774579 -5.54723,-7.444389 4.41995,-10.092834 1.76997,-0.47031 1.5568,-6.895403 -0.27932,-8.419253 -0.84113,-0.698075 -3.15509,-3.903175 -5.14214,-7.122445 C 606.34149,16.633948 604.3137,14 603.82233,14 603.33096,14 602.09257,12.0875 601.07037,9.75 600.04816,7.4125 598.26415,4.7169044 597.1059,3.7597875 593.09878,0.44849928 594.57725,0 609.5,0 l 14.5,0 0,41 c 0,22.55 -0.1125,40.964474 -0.25,40.921053 -0.1375,-0.04342 -0.8125,-0.305921 -1.5,-0.583334 z M 0,40.442502 0,-0.11499566 4.1500294,0.19250217 C 10.13185,0.63572723 11.964731,3.5633918 13.179078,14.614628 c 0.535632,4.87455 0.703886,14.492892 0.373896,21.374095 -0.85788,17.88921 -0.869652,22.110882 -0.07147,25.631522 0.558357,2.462813 0.127482,4.038905 -2.044981,7.48031 C 9.9227091,71.49859 7.5224706,74.36948 6.1026592,75.48031 4.6828478,76.591139 2.7289175,78.2875 1.7605919,79.25 0.07997679,80.920504 0,79.157632 0,40.442502 z M 117.2,79.8 c -0.66,-0.66 -1.2,-2.042996 -1.2,-3.073324 0,-2.454693 3.34383,-1.895371 3.8323,0.641027 0.47712,2.477488 -1.1155,3.949098 -2.6323,2.432297 z M 60.75,61.933339 C 58.424593,60.561057 58.340321,54.190373 60.635923,53.309468 63.479993,52.218096 65.5,54.413251 65.5,58.595291 c 0,4.157927 -1.533962,5.235914 -4.75,3.338048 z M 38.360768,53.497764 C 37.347893,50.858254 38.891291,47 40.960035,47 c 2.747648,0 3.415892,1.678219 2.014964,5.060357 -1.305818,3.152525 -3.673094,3.889969 -4.614231,1.437407 z M 515.45609,32.631154 c -3.08752,-1.437385 -7.00793,-4.551763 -10.10751,-8.029412 -3.89492,-4.370002 -5.90429,-5.817663 -8.70609,-6.272332 C 493.75365,17.860616 493,17.289506 493,15.569158 493,12.496895 494.87556,11 498.725,11 c 2.89444,0 3.40269,0.388471 3.925,3 0.33,1.65 0.88125,3.036153 1.225,3.08034 0.34375,0.04419 2.875,0.199255 5.625,0.344594 7.31678,0.386698 8.90005,1.162863 11.38269,5.580129 2.28587,4.067163 2.65363,11.011862 0.61731,11.657302 -0.55,0.17433 -3.26976,-0.739715 -6.04391,-2.031211 z M 51.666667,25.333333 c -1.922095,-1.922094 -0.267615,-5.420626 4.854223,-10.264646 5.358027,-5.067399 7.687957,-5.910353 8.252828,-2.985821 0.300302,1.554762 -5.952035,11.778554 -7.996639,13.076069 -1.558378,0.988953 -4.205521,1.07929 -5.110412,0.174398 z M 566.46805,19.899337 c -0.3667,-1.155365 -0.17952,-2.587865 0.41595,-3.183333 1.34517,-1.345175 1.77172,-0.935908 2.64312,2.536046 C 570.05591,21.358886 569.85729,22 568.6758,22 c -0.84757,0 -1.84105,-0.945298 -2.20775,-2.100663 z M 561.96796,9.75 C 558.3286,3.843822 561.1772,-0.07958925 566.54917,3.4402598 570.4011,5.9641419 569.47091,13 565.2853,13 c -0.72308,0 -2.21588,-1.4625 -3.31734,-3.25 z"
       id="path3031"
       inkscape:connector-curvature="0" />
    <path
       style="fill:#44d4fc;fill-opacity:1"
       d="M 201.14158,179.25 C 198.89647,175.01981 197,166.09919 197,159.76884 197,153.02865 198.90783,147 201.04083,147 c 0.54421,0 3.39745,1.35898 6.34053,3.01995 2.94309,1.66098 5.97805,2.77936 6.74437,2.4853 1.94877,-0.74782 5.88039,-8.48309 5.87705,-11.5628 -0.002,-2.02903 -0.84346,-2.92846 -4.07087,-4.35239 -5.14897,-2.27172 -6.6961,-5.33092 -4.89503,-9.67909 1.18524,-2.86144 1.12428,-3.31225 -0.61002,-4.51095 C 206.63436,119.77873 206,118.88299 206,116.14913 c 0,-3.2628 2.56546,-6.31229 6.77851,-8.05739 2.26259,-0.93719 3.70132,-2.76955 5.73799,-7.30786 2.43628,-5.428761 2.59817,-6.457772 1.56073,-9.920457 -1.32007,-4.405985 -3.10432,-4.87444 -8.04958,-2.113423 -3.0786,1.718833 -3.1691,1.707955 -5.08104,-0.610784 -2.22766,-2.701627 -2.7403,-11.945529 -0.77164,-13.914185 0.64623,-0.646233 1.72989,-5.505959 2.40813,-10.799392 1.0065,-7.855376 1.68925,-10.111626 3.71449,-12.275031 1.36473,-1.457834 3.50707,-5.575608 4.76076,-9.150608 2.74137,-7.817261 3.29314,-8.598428 7.47516,-10.582925 3.21753,-1.526821 4.89317,-5.141581 3.7565,-8.103694 -0.91666,-2.3888 -3.11976,-1.373838 -8.18299,3.76989 -5.48083,5.567965 -7.30202,5.882189 -10.35657,1.786902 -2.20028,-2.94996 -1.70195,-6.423298 1.0507,-7.32335 0.93437,-0.305515 2.70174,-2.107555 3.92748,-4.004534 3.43015,-5.308515 5.61124,-6.058577 8.86067,-3.047113 C 225.07581,15.872829 226.64569,17 227.07793,17 c 1.59088,0 5.13986,-6.204852 5.62721,-9.8383161 C 233.25816,3.03858 232.12527,1.4904487 228,0.73200021 226.625,0.47920035 258.00393,0.21108218 297.73095,0.13618205 L 369.9619,0 l 0.58842,2.75 c 0.32363,1.5125 1.9072,6.6650474 3.51905,11.450105 3.49712,10.381823 3.57651,12.855053 0.60708,18.911254 l -2.26101,4.611359 2.2012,2.888641 C 375.8273,42.200112 378.50353,48 380.56383,53.5 c 3.49888,9.340358 3.7571,10.791571 3.91449,22 0.16011,11.402292 0.31067,12.211688 3.02272,16.25 2.97558,4.430706 4.28448,5.064482 6.29896,3.05 2.01604,-2.016044 1.30801,-6.998882 -1.88986,-13.3 -1.67478,-3.3 -3.61488,-9.095047 -4.31133,-12.877881 -1.21411,-6.594515 -1.17571,-6.975612 0.93213,-9.25 2.53115,-2.731156 6.0461,-3.064866 8.53713,-0.810516 0.94905,0.858881 4.35949,1.811658 7.57874,2.11728 3.21925,0.305623 6.90204,1.212097 8.18398,2.014385 3.30692,2.069612 4.69878,1.142758 6.55596,-4.365664 0.95567,-2.834536 2.91401,-5.890548 4.74348,-7.402263 2.46459,-2.036519 2.96587,-3.047208 2.39828,-4.83551 l -0.71757,-2.260851 -2.30881,2.169022 c -2.37517,2.231357 -7.86399,3.936109 -12.8085,3.978141 C 405.17778,50.023033 397,38.250461 397,30.26306 397,27.519638 396.35705,24.532208 395.5318,23.44113 392.84946,19.894751 393.86481,14 397.15802,14 399.31328,14 402,19.227424 402,23.420828 c 0,5.334307 4.54882,10.430353 7.06464,7.914528 0.68686,-0.686857 1.70966,-9.835159 1.90334,-17.024083 0.0176,-0.6538 2.12384,-1.502416 4.68052,-1.885813 5.8854,-0.88257 14.94667,1.723669 15.84617,4.557739 0.82292,2.592813 -1.54052,6.840553 -5.98367,10.754251 -3.27732,2.886784 -3.59856,3.590836 -2.96581,6.5 1.37565,6.32473 2.36127,8.016506 4.21871,7.241195 5.69464,-2.377002 7.08399,-2.750992 8.37679,-2.254897 2.3126,0.887426 7.93562,12.624941 8.55549,17.85875 0.49325,4.164788 0.22699,5.220102 -1.97839,7.841044 -3.45054,4.100728 -4.22805,8.189046 -2.27548,11.964906 1.46436,2.831755 1.42964,3.321618 -0.51987,7.334295 l -2.08904,4.299869 4.08919,6.123601 c 4.13255,6.188547 6.63598,7.753667 10.75036,6.721027 1.22829,-0.30829 3.64966,0.14608 5.38081,1.00969 1.73116,0.86362 4.5897,1.84076 6.35231,2.17143 2.76912,0.51949 3.36714,0.24481 4.39934,-2.02063 1.82648,-4.00868 1.45713,-6.825549 -1.67595,-12.781616 -1.57879,-3.001337 -3.47319,-7.808437 -4.20978,-10.682444 -1.19004,-4.643274 -1.15233,-5.522843 0.33839,-7.894568 4.43729,-7.059696 5.08137,-8.994139 4.11728,-12.366 C 465.58954,56.054776 464.8533,55.416022 461.99184,55 456.45944,54.195656 454.00255,47.117646 458,43.5 c 1.1,-0.995486 2.00614,-2.977731 2.01365,-4.404988 0.0433,-8.223709 3.9028,-9.455424 7.45605,-2.379499 1.16428,2.318532 3.10989,5.272535 4.32359,6.564451 1.21369,1.291916 2.20671,3.129782 2.20671,4.084147 0,0.954365 0.62364,2.950362 1.38587,4.435549 0.76223,1.485187 1.94228,5.399351 2.62234,8.698143 0.68006,3.298791 2.08142,7.071978 3.11413,8.384858 2.28168,2.900689 2.35047,4.466111 0.33162,7.547255 -1.18948,1.815379 -1.50263,4.863046 -1.35785,13.214817 0.10349,5.970397 -0.14907,13.587457 -0.56125,16.926797 -0.67833,5.49554 -0.4832,6.58652 2.05686,11.5 2.04678,3.95929 2.85291,7.05234 2.97858,11.42847 0.0948,3.3 0.88546,7.8 1.7571,10 3.0601,7.72356 1.33125,21.5 -2.69809,21.5 -2.74373,0 -4.90585,-3.74355 -4.16452,-7.21055 0.97216,-4.54655 0.9172,-8.58627 -0.18079,-13.28945 -2.10859,-9.03201 -4.89789,-10.6 -9.784,-5.5 -3.59702,3.75448 -4.89937,3.75448 -8.65385,0 -3.60715,-3.60716 -4.8249,-3.71597 -7.67184,-0.68555 -2.53536,2.69877 -2.83847,6.88946 -0.63083,8.72163 1.5074,1.25103 4.33747,0.88837 12.17819,-1.56061 1.8144,-0.56671 2.43421,-0.16977 3.38105,2.16531 0.63765,1.57257 2.25837,5.0057 3.6016,7.62918 1.34322,2.62347 2.36157,5.99847 2.26299,7.5 -0.37414,5.69877 0.0567,6.78814 3.39554,8.58625 4.00179,2.1551 8.05101,8.76447 7.13592,11.64766 -0.83038,2.61631 -8.14785,2.8583 -9.99616,0.33059 -1.13636,-1.55406 -1.4965,-1.55406 -5.38048,0 -3.40226,1.36131 -7.84479,1.66554 -24.32137,1.66554 -13.31092,0 -21.30055,-0.41288 -23.51998,-1.21543 -2.52003,-0.91126 -3.81463,-0.93227 -5.17301,-0.084 -1.3106,0.81849 -27.44064,1.16494 -94.45978,1.25243 L 229,181.074 l 0,-2.95521 C 229,174.41063 228.10244,172 226.72175,172 c -0.58535,0 -1.85885,-0.71908 -2.83,-1.59796 -0.97115,-0.87888 -2.24408,-1.30232 -2.82874,-0.94098 -1.58914,0.98214 -1.28182,6.78153 0.49369,9.31643 l 1.55671,2.22251 -10.52152,0 c -9.00001,0 -10.65583,-0.25307 -11.45031,-1.75 z m 197.32917,-59.98947 c 0.87777,-3.49733 -0.73995,-4.91454 -3.94362,-3.45484 -2.06665,0.94162 -2.52713,1.85383 -2.52713,5.0062 0,2.12013 0.30412,4.15889 0.67581,4.53059 1.03318,1.03317 5.07341,-3.20717 5.79494,-6.08195 z m 27.93064,1.13584 c 0.89827,-2.34084 -0.23549,-3.8118 -4.80735,-6.23716 -3.33059,-1.76687 -4.52487,-3.06337 -4.99717,-5.42486 -0.34134,-1.70672 -1.40278,-3.96673 -2.35875,-5.02226 C 413.14849,102.50898 412.31345,99.499724 412,95.646477 411.62786,91.071831 411.11641,89.5 410,89.5 c -1.19968,0 -1.43205,1.159047 -1.16059,5.789069 0.23723,4.046249 -0.13265,6.509521 -1.22861,8.182171 -1.48702,2.26949 -1.43192,2.49225 1.06677,4.31242 1.44913,1.05562 2.70336,2.85012 2.78717,3.98779 0.0838,1.13766 1.47604,3.39973 3.09383,5.02681 1.61778,1.62708 3.45551,3.61727 4.08382,4.42264 1.39852,1.79259 6.98242,1.1992 7.759,-0.82453 z m 25.02718,-1.9678 c 2.076,-2.07599 2.15172,-9.42857 0.0971,-9.42857 -2.09141,0 -4.81111,5.72661 -4.088,8.6077 0.69905,2.78526 1.80004,3.01172 3.99089,0.82087 z M 426.52953,100.73839 C 427.25973,97.829013 424.42463,91 422.48658,91 c -1.92565,0 -1.89872,1.413062 0.0579,3.036897 1.05336,0.874215 1.34777,2.177275 0.9259,4.098046 -1.01063,4.601397 1.92968,7.103687 3.05917,2.603447 z M 227.84208,77.899974 c 2.01427,-2.924089 2.25472,-4.162623 1.7179,-8.848737 -0.63302,-5.52597 -1.48238,-7.532563 -2.26424,-5.349172 -0.23675,0.661135 -1.52159,2.686135 -2.8552,4.5 -4.24663,5.775905 -5.73782,9.85006 -4.55524,12.445551 1.39954,3.071647 4.74362,1.916864 7.95678,-2.747642 z m 278.09155,91.027596 c -4.84196,-5.5396 -5.12509,-6.09514 -8.45069,-16.58139 l -2.26876,-7.15383 3.2487,-4.56935 c 2.91548,-4.10069 3.20018,-5.1106 2.77573,-9.84618 -0.33525,-3.74031 -1.17164,-6.02576 -2.8724,-7.84888 -2.3799,-2.55112 -2.38913,-2.64445 -1.13282,-11.46284 l 1.26661,-8.89079 3.36061,-0.68348 c 4.76002,-0.96809 6.34753,-3.001618 6.90957,-8.850853 0.35673,-3.712599 1.02336,-5.394299 2.43852,-6.151672 3.03364,-1.623554 4.47332,-0.466585 7.8592,6.315919 1.72861,3.462677 5.00798,8.145236 7.28751,10.405696 6.5358,6.48111 8.82694,10.09506 11.89307,18.75957 1.5737,4.44709 3.96158,9.5282 5.3064,11.29134 3.04025,3.98598 3.14539,7.73527 0.27334,9.74694 -2.03133,1.42279 -2.0897,1.79835 -0.90254,5.8067 0.69809,2.35704 1.67539,5.06692 2.17178,6.02196 1.72843,3.3254 0.92354,6.35088 -2.59746,9.76357 -1.925,1.86578 -3.5,3.97906 -3.5,4.69617 0,2.29687 -2.74279,1.39822 -5.41111,-1.7729 -1.42389,-1.69219 -2.58889,-3.85219 -2.58889,-4.8 0,-0.9478 -0.54,-2.26327 -1.2,-2.92327 -1.72392,-1.72392 -7.83481,-1.47848 -9.90825,0.39796 -2.13443,1.93163 -3.88621,1.07661 -3.90706,-1.90698 -0.0194,-2.77608 -0.90114,-4.08418 -3.77246,-5.59668 -3.46681,-1.82617 -6.39448,-0.49297 -6.02037,2.74154 0.23243,2.00957 1.33802,3.15556 4.4997,4.66416 2.30536,1.1 4.35753,2.675 4.56037,3.5 0.68231,2.77514 -2.34544,10 -4.19074,10 -0.38166,0 -2.68906,-2.28259 -5.12756,-5.07243 z m 96.09135,-3.11847 c -1.10963,-1.82001 -2.02014,-3.9841 -2.02336,-4.8091 -0.003,-0.825 -1.72819,-4.875 -3.83328,-9 -2.10508,-4.125 -4.41527,-9.647 -5.13375,-12.27112 -1.14999,-4.20009 -1.11055,-4.98746 0.32954,-6.57874 2.1397,-2.36434 2.06348,-3.45318 -0.39762,-5.68044 -1.65332,-1.49624 -1.91944,-2.60075 -1.42349,-5.90801 0.50341,-3.35696 0.0553,-5.11558 -2.5647,-10.0647 -2.7686,-5.22987 -3.10603,-6.68203 -2.6379,-11.35227 0.29524,-2.945404 0.82646,-5.64493 1.18047,-5.998947 0.60599,-0.605982 5.35098,4.337068 11.10315,11.566587 2.27813,2.86323 2.43615,3.57523 1.45396,6.55129 -0.85948,2.60425 -0.77164,4.42781 0.3992,8.28764 0.82564,2.72179 1.50602,6.16331 1.51198,7.64782 0.008,1.90229 1.04408,3.48721 3.51082,5.36869 2.09475,1.59774 3.5,3.53634 3.5,4.82838 0,1.18735 0.65595,3.0953 1.45766,4.2399 1.29481,1.84861 1.23896,2.65667 -0.5,7.23324 -2.64389,6.95816 -2.48026,8.62237 1.09834,11.17056 2.3105,1.64522 2.98136,2.82058 2.75,4.81809 -0.26194,2.26159 -0.84293,2.68654 -4.03476,2.95113 -3.29438,0.27309 -3.96378,-0.0764 -5.74626,-3 z m -17.72862,-5.51173 c -2.43231,-2.14072 -5.3025,-9.24281 -5.28105,-13.06761 0.0356,-6.35145 3.67652,-6.62265 8.90865,-0.66358 3.66845,4.17812 4.63322,7.49508 3.41799,11.75123 -1.08039,3.78391 -4.04826,4.61795 -7.04559,1.97996 z m -14.27817,-33.74226 c -1.4835,-4.49504 -0.60521,-7.20019 2.9315,-9.02909 5.45584,-2.82133 5.40706,-7.08469 -0.14146,-12.3641 l -4.19176,-3.98847 1.19176,-5.163014 C 570.4637,93.170777 571,89.742627 571,88.392325 c 0,-2.921905 2.59745,-4.229778 4.52626,-2.279069 0.75414,0.762709 1.86552,5.393573 2.46972,10.29081 0.60421,4.897234 1.57254,9.789714 2.15186,10.872164 0.57931,1.08246 0.79397,3.26474 0.47701,4.84951 -0.42864,2.14323 0.18605,4.08345 2.39944,7.57361 3.15943,4.98191 3.77678,8.11338 1.72571,8.75359 -0.6875,0.2146 -4.02175,0.66821 -7.40944,1.00803 l -6.15944,0.61785 -1.16293,-3.52371 z M 29.540416,112.0654 c -0.319528,-0.51701 -0.639856,-4.12932 -0.711839,-8.02736 -0.111882,-6.058616 0.192515,-7.431589 2.097105,-9.458932 1.896296,-2.018515 2.127186,-3.043751 1.550914,-6.886613 -0.617353,-4.1168 -0.448369,-4.664884 1.915881,-6.214 3.74063,-2.450955 6.795871,-1.267365 9.597915,3.718199 4.366023,7.768289 2.57062,17.498916 -3.666256,19.870166 -1.414196,0.53768 -3.45056,2.09544 -4.525253,3.46169 -2.440063,3.10204 -5.469206,4.8139 -6.258467,3.53685 z M 567.28672,78.75 c -0.52699,-0.6875 -2.60709,-4.248118 -4.62244,-7.912485 -3.96411,-7.207639 -4.84829,-13.836026 -2.30889,-17.308865 2.1261,-2.907609 4.1315,-1.277752 8.03957,6.534015 3.71306,7.421962 4.48189,12.50084 2.62979,17.372235 -1.07036,2.81525 -2.26574,3.235806 -3.73803,1.3151 z m 13.90945,-3.047607 c -6.28442,-6.483869 -2.96789,-9.667625 5.4692,-5.250245 C 589.59941,71.988319 592,73.609377 592,74.054499 592,75.012131 586.59075,79 585.2918,79 c -0.49471,0 -2.33774,-1.483923 -4.09563,-3.297607 z M 0.02705759,43.375 C 0.01217591,24.05625 0.28125,6.84375 0.625,5.125 1.099776,2.7511198 1.7835985,2 3.4700124,2 c 2.878955,0 4.7068728,2.2953105 6.8908226,8.652783 1.491027,4.340378 1.613878,6.280166 0.779195,12.303349 -0.663287,4.786363 -0.65359,9.317269 0.02933,13.703796 0.827108,5.312679 0.706698,7.801465 -0.636068,13.147042 -1.5491063,6.167022 -1.5465887,6.837135 0.0389,10.353115 1.879589,4.168183 2.03618,3.854337 -7.2951304,14.621161 L 0.05411518,78.5 0.02705759,43.375 z M 622.81209,70.5 c -0.37835,-1.65 -1.31397,-3.844475 -2.07916,-4.876612 -1.14124,-1.539364 -1.76957,-1.674147 -3.49635,-0.75 C 612.20137,67.56815 607,64.779149 607,59.384483 c 0,-2.373561 1.71986,-3.376198 5.83179,-3.399796 5.03618,-0.0289 5.65665,-1.184961 3.64238,-6.786454 -1.6813,-4.675547 -1.69061,-5.12465 -0.13836,-6.676902 1.88917,-1.889166 2.19516,-8.069934 0.67111,-13.555851 -0.86687,-3.120354 -3.80583,-8.172435 -8.41504,-14.46548 -0.80567,-1.1 -2.10819,-4.8125 -2.8945,-8.25 L 604.26774,0 614.13387,0 624,0 l 0,8.0351833 c 0,5.8346087 -0.45919,8.7360007 -1.6767,10.5941507 -1.57021,2.396444 -1.56888,2.759402 0.0209,5.714817 1.48111,2.753388 1.66306,6.089004 1.4267,26.155849 -0.149,12.65 -0.58047,21.65 -0.95882,20 z M 577.25181,63.46382 C 573.79808,61.044737 572.47039,55.203289 574.35118,50.701925 575.2019,48.665866 576.33877,47 576.87754,47 c 3.49939,0 7.37707,11.787214 5.20986,15.836693 -1.37695,2.572853 -1.95133,2.647344 -4.83559,0.627127 z M 555.75,42.919901 C 552.53611,41.047985 554.24531,36 558.09301,36 559.98258,36 561,37.953577 561,41.581787 c 0,2.620886 -2.11993,3.161211 -5.25,1.338114 z M 510,23 c 0,-0.55 0.9,-1 2,-1 1.1,0 2,0.45 2,1 0,0.55 -0.9,1 -2,1 -1.1,0 -2,-0.45 -2,-1 z M 54,21.622445 c 0,-1.604129 2.781678,-4.1741 3.615472,-3.340306 0.311927,0.311927 0.270728,1.501052 -0.09155,2.6425 C 56.79149,23.232318 54,23.785088 54,21.622445 z M 453.62961,9.0323296 C 452.73333,6.7922882 452,3.8436335 452,2.4797636 452,0.39361353 452.47406,0 454.98658,0 c 2.50124,0 3.24549,0.60939507 4.57985,3.75 1.91884,4.5162882 0.92286,8.601685 -2.20694,9.052566 -1.63959,0.2362 -2.45771,-0.590774 -3.72988,-3.7702364 z M 392.5348,5.8964078 C 387.64105,1.5996409 387.9029,0 393.5,0 c 3.78772,0 4.5,0.30722537 4.5,1.940983 0,1.0675407 0.45,2.2190983 1,2.559017 0.55,0.3399187 1,1.4914763 1,2.559017 0,2.9389565 -3.39617,2.4100462 -7.4652,-1.1626092 z M 420.2,4.8 C 417.91881,2.5188061 418.77248,0 421.82681,0 c 2.57207,0 2.78713,0.27033796 2.3865,3 -0.4613,3.1429925 -1.98633,3.8269817 -4.01331,1.8 z"
       id="path3029"
       inkscape:connector-curvature="0" />
    <path
       style="fill:#24d0fc;fill-opacity:1"
       d="m 209.39424,180.23469 c -0.60816,-0.40408 -1.41635,-2.42377 -1.79597,-4.48821 -0.37962,-2.06443 -1.37678,-4.31443 -2.21592,-5 -4.61291,-3.76869 -5.08787,-4.65497 -5.71619,-10.66636 C 198.98946,153.60579 199.98023,150 202.43589,150 c 0.75103,0 3.74196,1.10102 6.64651,2.44672 2.90455,1.3457 5.6593,2.21292 6.12168,1.92715 1.8077,-1.11722 6.6882,-12.27917 6.9837,-15.9721 0.30778,-3.84627 0.26242,-3.9023 -3.18902,-3.93901 -5.7025,-0.0607 -6.22516,-0.83511 -5.44981,-8.07525 l 0.6864,-6.40951 -3.11768,-1.08682 C 208.58896,118.00966 208,117.25364 208,114.88918 c 0,-2.44728 0.69463,-3.25265 4.32785,-5.01781 3.67328,-1.78461 4.73059,-3.03042 6.99067,-8.237 2.18666,-5.037414 2.55376,-7.042936 2.05289,-11.21523 -0.60069,-5.00393 -0.55594,-5.112712 2.95564,-7.184596 4.98558,-2.941561 7.60251,-8.444005 7.01726,-14.754705 -0.99956,-10.778332 -2.07141,-11.895253 -5.31459,-5.538091 -1.10601,2.167961 -3.14016,5.605757 -4.52033,7.639547 C 219.78426,73.123423 219,75.634659 219,78.616494 c 0,4.683231 -1.72461,6.565621 -7.26299,7.927451 -6.17621,1.518668 -7.56142,-5.066452 -3.03909,-14.447454 2.16902,-4.499341 2.63994,-6.74362 2.40215,-11.447925 -0.27,-5.341529 -0.0329,-6.125805 2.721,-9 1.80739,-1.886352 3.70089,-5.528781 4.72329,-9.085963 1.61778,-5.628676 2.54745,-6.889271 8.43437,-11.43672 2.14362,-1.655871 2.49733,-2.773989 2.61628,-8.27031 0.0961,-4.43937 0.81234,-7.638936 2.37567,-10.612171 1.55589,-2.9590749 2.12204,-5.4738925 1.8573,-8.2500001 L 233.44715,0 l 67.628,0 67.62801,0 1.79555,6.75 c 0.98756,3.7125 2.62935,8.904159 3.64842,11.53702 2.43755,6.297582 2.35027,7.823064 -0.81779,14.293079 l -2.67066,5.454201 2.54712,2.73285 c 4.83859,5.191409 8.88435,21.743781 9.29913,38.045438 0.16759,6.586793 0.63688,8.887947 2.26042,11.083899 3.93311,5.319818 5.22549,13.721413 3.04027,19.764503 -0.96491,2.66842 -0.88715,4.79538 0.40476,11.071 0.87952,4.27241 2.30241,9.79301 3.16197,12.26801 0.85957,2.475 1.91493,7.2 2.34525,10.5 1.04276,7.99666 2.74763,6.82718 2.9156,-2 0.23483,-12.34111 3.68209,-22.86035 7.83297,-23.90215 3.03074,-0.76067 8.44864,1.55249 11.27722,4.81478 1.76476,2.03536 3.1622,2.58737 6.55,2.58737 2.36863,0 4.84661,-0.54 5.50661,-1.2 2.7649,-2.7649 0.22165,-11.8 -3.32152,-11.8 -0.77446,0 -1.92794,-1.0125 -2.56329,-2.25 -0.63535,-1.2375 -2.48926,-3.66072 -4.11981,-5.38492 C 414.35621,100.72837 414.19741,96.5 417.5,96.5 c 1.48141,0 2.08652,0.777888 2.33366,3 0.41945,3.77126 2.81187,6.5 5.69888,6.5 3.20791,0 4.53524,-2.14539 5.06147,-8.180933 0.45498,-5.218307 0.3883,-5.378229 -3.51988,-8.442211 -3.68817,-2.891487 -4.27235,-3.046086 -7.87581,-2.084268 -5.27221,1.407234 -6.90929,0.547512 -9.21933,-4.841607 -1.60964,-3.755136 -2.37899,-4.533166 -4.22357,-4.271242 -1.75547,0.24927 -2.49582,1.317761 -3.33995,4.820261 -1.42925,5.930327 -4.11602,6.127121 -6.82635,0.5 -2.04076,-4.236953 -3.23115,-13.805817 -2.21911,-17.838104 0.5896,-2.349157 0.81679,-2.400264 8.85848,-1.992714 7.0808,0.358853 8.6176,0.767241 10.81715,2.874548 C 414.45573,67.894678 416.1218,69 416.74801,69 418.60843,69 421,64.781552 421,61.5 c 0,-3.861075 2.22865,-7.089588 5.45251,-7.898725 1.99428,-0.500532 2.82142,-1.735762 4.09429,-6.114263 C 431.50971,44.174702 432.70267,42 433.55677,42 c 2.22577,0 6.63581,7.52893 7.16617,12.234255 0.38903,3.451512 0.0781,4.635833 -1.62078,6.17329 C 437.94597,61.453881 437,62.904857 437,63.631935 c 0,0.727077 -1.08721,2.034329 -2.41603,2.905004 -3.39949,2.227432 -3.87765,4.237646 -1.48442,6.240655 5.41883,4.535272 5.55245,8.42127 0.51998,15.121654 C 430.76346,91.701907 430.98812,93 434.50231,93 c 2.46661,0 5.48821,3.275194 5.51007,5.972506 0.007,0.840122 1.58181,2.544134 3.5,3.786684 3.71051,2.40358 4.14481,4.05716 2.38866,9.09484 -0.81619,2.34134 -0.78502,4.46115 0.12117,8.23856 0.97213,4.05228 0.96336,5.56586 -0.0431,7.44654 -0.99044,1.85066 -1.00615,2.98126 -0.0727,5.23475 0.65481,1.58086 1.3352,6.89095 1.51197,11.8002 0.51217,14.22348 1.56502,21.58214 3.81511,26.66464 1.72393,3.89403 1.89393,5.18636 0.95367,7.25 -1.25235,2.74861 -4.27659,3.31329 -6.08365,1.13592 -0.62779,-0.75645 -3.12512,-1.93075 -5.54962,-2.60957 -4.5808,-1.28255 -5.8955,-0.95827 -12.36926,3.05097 -2.17869,1.34927 -2.49323,1.21406 -5.3257,-2.28949 -2.90312,-3.59094 -3.09563,-3.66752 -5.40896,-2.15176 -2.40187,1.57376 -3.45626,1.56169 -16.58909,-0.18982 -4.39898,-0.58669 -4.73376,-0.45864 -6.46561,2.47315 L 392.56878,181 311.28439,181 230,181 l 0,-4.61552 c 0,-4.15389 -0.42503,-5.00404 -4.24956,-8.5 C 223.41319,165.74801 221.01369,164 220.41823,164 c -1.29874,0 -3.37189,6.28113 -2.88801,8.74997 1.68456,8.59506 1.80163,8.25141 -2.80522,8.23472 -2.32375,-0.008 -4.72259,-0.34592 -5.33076,-0.75 z M 421.374,168.19155 C 422.50327,164.254 420.88785,162 416.93657,162 c -4.07089,0 -4.35316,1.37385 -1.21375,5.90746 3.20289,4.62526 4.38904,4.68489 5.65118,0.28409 z m 56.01901,11.22666 c 0.33385,-0.86998 0.6213,-2.33248 0.63879,-3.25 0.0274,-1.43904 0.2335,-1.40155 1.5,0.27292 2.07561,2.7442 1.82134,4.55887 -0.63879,4.55887 -1.51045,0 -1.93514,-0.44784 -1.5,-1.58179 z M 456.96433,176.75 c -0.0196,-0.1375 -0.52057,-4.75 -1.1132,-10.25 -1.89426,-17.57963 -1.39394,-19.31835 5.68474,-19.75574 3.61039,-0.22309 4.1038,0.057 5.69363,3.23251 1.32257,2.64166 1.72679,5.88436 1.68284,13.5 -0.0689,11.94622 -0.9514,13.52323 -7.56733,13.52323 -2.38975,0 -4.36106,-0.1125 -4.38068,-0.25 z m 75.07413,-18.69599 C 530.43345,155.79999 529.07074,155 526.8362,155 c -1.66519,0 -4.22205,-0.61261 -5.68191,-1.36135 -5.64985,-2.89775 -9.86225,-4.03322 -15.15429,-4.08492 -5.48602,-0.0536 -5.50081,-0.0622 -5.81864,-3.3745 -0.19239,-2.00506 0.39545,-4.38231 1.48365,-6 1.4026,-2.08507 4.8976,-16.53696 4.02742,-16.65347 -0.10584,-0.0142 -1.54243,-0.71638 -3.19243,-1.56048 -2.88979,-1.47834 -3.01067,-1.8148 -3.29043,-9.15911 l -0.29043,-7.62438 3.41951,-1.12854 c 4.34829,-1.43506 6.14912,-3.48832 7.721,-8.80325 0.69131,-2.3375 1.82069,-4.25 2.50974,-4.25 1.42552,0 6.43061,5.608604 6.43061,7.206016 0,0.578911 1.9125,2.950954 4.25,5.271204 8.07294,8.01338 10.07251,11.40204 14.34108,24.30368 2.99829,9.06226 2.99534,9.99479 -0.0361,11.37599 -3.81173,1.73674 -3.79936,3.56688 0.0529,7.8309 2.94553,3.26036 3.59087,4.77149 3.72719,8.72764 L 541.5,160.5 l -3.64345,0.30401 c -3.09247,0.25804 -3.9723,-0.15782 -5.81809,-2.75 z m 50.57421,-3.67736 C 580.44005,148.00036 580.53605,146 583.0147,146 c 4.87497,0 8.04771,12.1346 3.34797,12.80479 -1.7512,0.24972 -2.42867,-0.55026 -3.75,-4.42814 z m 15.77686,-4.14531 c -2.01197,-1.32506 -4.5153,-7.31446 -4.19955,-10.04774 0.21157,-1.83134 0.97297,-2.77832 2.39753,-2.98186 2.72571,-0.38944 4.18275,1.48342 4.93852,6.34787 0.65643,4.22508 -1.12012,8.0097 -3.1365,6.68173 z M 458,124.66802 c -2.05683,-0.71642 -3.42648,-1.82706 -3.32171,-2.69356 1.32098,-10.92445 3.49534,-13.72395 8.03568,-10.34599 2.21464,1.64767 2.84752,3.00145 3.08587,6.60089 0.209,3.15626 -0.19135,5.01929 -1.32143,6.14937 -1.88591,1.88592 -1.89354,1.88626 -6.47841,0.28929 z m 13.95385,-4.23509 c -3.18988,-4.63634 -3.2068,-4.72476 -1.96547,-10.27163 1.39843,-6.24884 2.96311,-10.1613 4.06373,-10.1613 1.07045,0 2.04361,4.58697 1.35428,6.38335 -0.32551,0.84825 0.15481,3.79019 1.06737,6.53765 1.79604,5.40736 1.72837,11.19475 -0.13804,11.80675 -0.64036,0.20997 -2.6122,-1.7227 -4.38187,-4.29482 z m 116.64117,-8.861 c -3.96572,-6.767 -3.3046,-12.158094 1.11165,-9.06483 2.94462,2.06249 5.47148,7.93493 4.71361,10.95449 -0.93869,3.74005 -2.89862,3.10427 -5.82526,-1.88966 z M 393.57143,108.42857 C 392.70714,107.56429 392,106.27497 392,105.56343 c 0,-4.12921 9.41323,-10.256114 10.68108,-6.952128 1.0961,2.856378 -1.60428,9.408998 -4.29985,10.433858 -3.17894,1.20863 -2.95601,1.2372 -4.8098,-0.61659 z M 31.777494,103.411 c -0.991959,-2.17712 -0.840493,-3.25098 0.95207,-6.750002 1.172433,-2.288549 2.427069,-6.07114 2.788079,-8.405758 0.36101,-2.334618 1.071253,-4.501164 1.578318,-4.814547 1.907443,-1.178865 5.136319,0.870983 6.495328,4.12355 3.039909,7.275527 1.150863,13.547367 -4.971307,16.505277 -5.116392,2.47197 -5.429888,2.4418 -6.842488,-0.65852 z m 541.898876,-0.21611 c -1.73635,-1.91864 -2.09491,-5.030489 -1.03539,-8.985782 1.02505,-3.826617 2.81898,-1.864037 3.53993,3.872715 0.7713,6.137477 -0.0535,7.821397 -2.50454,5.113067 z M 471.51295,93.75 c -4.45917,-6.348403 -6.41079,-9.926338 -7.96223,-14.59731 l -1.70633,-5.137261 2.95589,-5.257715 c 1.62877,-2.897145 3.24897,-7.602785 3.60869,-10.48091 0.70448,-5.636628 0.83893,-5.488766 -5.90897,-6.498085 -1.16382,-0.174079 -2.12939,-1.203482 -2.30949,-2.462162 -0.38251,-2.673309 3.40091,-10.329871 5.07981,-10.280113 0.67633,0.02004 2.49993,1.707544 4.05246,3.75 2.11132,2.777587 2.68177,4.42141 2.2633,6.522042 -0.3857,1.936164 0.0808,3.674446 1.50179,5.596494 1.1337,1.533405 2.3147,4.769587 2.62446,7.191515 0.30976,2.421928 1.14506,5.55844 1.85623,6.970028 0.92796,1.841889 1.13126,5.371144 0.72004,12.5 C 477.65296,92.586022 476.77373,96 474.57144,96 c -0.81294,0 -2.18926,-1.0125 -3.05849,-2.25 z M 0,46.753889 C 0,20.674432 0.25553651,15.249346 1.7057928,10.539603 2.6439789,7.4928216 3.9939789,5 4.7057928,5 5.4176068,5 6,5.6143136 6,6.3651413 6,7.115969 6.9,8.8744472 8,10.272871 c 2.394455,3.044056 2.668847,9.906792 0.5934536,14.842698 -1.2101452,2.878088 -1.2088308,3.727529 0.00941,6.083353 2.4748084,4.785751 2.6105414,13.185616 0.3074822,19.028525 -1.4040687,3.56215 -1.8505092,6.277989 -1.4142608,8.603393 0.509053,2.713485 0.1762527,3.889035 -1.6519048,5.835019 -1.3565488,1.44398 -2.3836678,3.91068 -2.5207709,6.053813 C 3.1961518,72.70895 2.3963229,75.032249 1.5460148,75.882557 0.15132841,77.277243 0,74.426045 0,46.753889 z M 581.60699,74.418213 C 580.542,71.642887 580.94293,70.852793 583.25,71.180449 586.23601,71.60453 587.08102,76 584.17654,76 c -1.07941,0 -2.23571,-0.711804 -2.56955,-1.581787 z M 564.80928,70.25 C 561.37243,66.565132 560,63.713383 560,60.256871 c 0,-3.43979 2.23855,-6.845509 3.84635,-5.851831 C 565.91244,55.68195 570,65.606818 570,69.346491 570,73.793664 568.37779,74.07603 564.80928,70.25 z M 622.28856,64 c -0.66629,-2.475 -1.7133,-7.725998 -2.32667,-11.668884 -0.95886,-6.163734 -0.86797,-7.953267 0.64823,-12.763213 0.9699,-3.076881 2.14092,-5.21686 2.60227,-4.755509 0.46136,0.461352 0.7148,8.229797 0.56322,17.263213 C 623.52471,67.027412 623.39138,68.096536 622.28856,64 z m -12.92581,-2.497081 c -0.34557,-0.900544 -0.16636,-2.099307 0.39825,-2.663917 1.6301,-1.630104 4.739,-0.531465 4.739,1.674693 0,2.54367 -4.22832,3.357871 -5.13725,0.989224 z m -32.74518,-1.028203 c -2.26273,-2.262731 -2.98881,-5.912525 -1.66742,-8.381575 2.16373,-4.042956 4.66732,-1.478316 5.23272,5.360309 0.3548,4.291455 -1.07959,5.506972 -3.5653,3.021266 z M 406.11328,44.75 l -2.08312,-3.25 4.4495,-4 4.4495,-4 -0.0872,-8.249796 C 412.74234,15.824099 413.66714,14 418.54572,14 422.65297,14 428,18.222776 428,21.466449 c 0,2.6406 -1.48297,4.05766 -7.88947,7.538821 l -4.61053,2.50527 0.337,6.157731 c 0.28367,5.183275 0.007,6.487997 -1.75,8.24473 -2.96994,2.969943 -5.5675,2.591078 -7.97372,-1.163001 z M 210.66667,29.333333 c -1.22574,-1.225737 -0.68459,-5.11248 0.79063,-5.678574 0.80151,-0.30757 2.60716,-2.380714 4.01254,-4.606988 2.82681,-4.477949 5.25735,-5.111695 7.99645,-2.085016 2.37628,2.625754 1.44819,4.530064 -3.41757,7.012389 C 217.82192,25.111171 216,26.658357 216,27.413335 c 0,1.963967 -3.88924,3.364092 -5.33333,1.919998 z M 397,19.440983 c 0,-0.857459 0.45,-1.280902 1,-0.940983 0.55,0.339919 1,1.041476 1,1.559017 C 399,20.576558 398.55,21 398,21 c -0.55,0 -1,-0.701558 -1,-1.559017 z M 612.5,15.999035 C 610.20672,13.188948 607.79708,8.7300375 606.85258,5.5488012 L 605.20516,0 614.60258,0 624,0 l 0,8.4021749 0,8.4021751 -3,1.045805 c -1.65,0.575193 -3,1.519215 -3,2.097825 0,2.016018 -1.52652,0.919994 -5.5,-3.948945 z M 454.60699,7.4182125 C 453.53838,4.6334574 453.95531,2 455.46482,2 c 1.81764,0 3.87988,3.6593497 3.14357,5.5781407 -0.73238,1.9085385 -3.24621,1.8080654 -4.0014,-0.1599282 z M 391.22251,3.443296 C 388.06886,1.2343929 388.46708,0 392.33333,0 c 3.97881,0 4.61239,0.49157508 3.94128,3.0579046 -0.61395,2.3477319 -2.08974,2.4603104 -5.0521,0.3853914 z"
       id="path3027"
       inkscape:connector-curvature="0" />
    <path
       style="fill:#24d0fc;fill-opacity:1"
       d="m 231.76634,168.25 c -0.25858,-7.0125 -0.80294,-13.51928 -1.20969,-14.4595 -0.53235,-1.23057 -1.76455,-1.65081 -4.3981,-1.5 -3.29177,0.1885 -3.68974,-0.0607 -3.96968,-2.48564 -0.22084,-1.91304 0.57717,-3.62465 2.75,-5.89831 C 226.62249,142.1448 228,140.11892 228,139.4046 c 0,-0.71432 1.125,-3.41461 2.5,-6.00062 1.5632,-2.93999 2.5,-6.33228 2.5,-9.05292 C 233,120.61295 232.70742,120 230.92308,120 c -1.14231,0 -3.35036,-1.27344 -4.90679,-2.82986 -3.7248,-3.7248 -4.86132,-11.67049 -2.58123,-18.045867 C 224.29578,96.717624 225,93.299868 225,91.529261 c 0,-2.003911 0.79523,-3.938474 2.10641,-5.124273 1.15852,-1.047744 2.94649,-3.550978 3.97326,-5.562743 1.02677,-2.011765 2.40916,-3.838521 3.07197,-4.059458 0.67957,-0.226524 1.53465,-3.428427 1.96078,-7.342246 0.72295,-6.639943 0.6286,-7.120863 -2.17837,-11.104019 -3.96916,-5.632315 -3.76346,-8.0346 1.06595,-12.449116 5.76038,-5.265502 5.23392,-7.611093 -0.98631,-4.394483 -4.17312,2.158004 -6.28835,1.041666 -5.43752,-2.869715 0.37366,-1.717765 1.29688,-4.010836 2.0516,-5.095714 0.75473,-1.084879 1.38297,-4.234879 1.39609,-7 0.0378,-7.976441 1.51245,-12.46831 5.40015,-16.449677 C 239.39081,8.0636389 241,5.6839523 241,4.7896248 241,-0.01462985 240.93285,0 262.98454,0 c 23.35379,0 24.38349,0.28306385 21.99611,6.0467155 -1.21166,2.925202 -0.85343,16.4138405 0.47109,17.7383625 1.37101,1.371004 1.83088,-1.540691 1.93559,-12.25531 L 287.5,8.6188665e-4 322.50945,4.3094333e-4 C 356.43614,1.3328127e-5 357.55754,0.06185559 358.76793,2 360.3876,4.5935069 362,4.5588097 362,1.930449 c 0,-1.55448394 0.53945,-1.99002151 2.16752,-1.74999995 1.84307,0.27171939 2.52387,1.74154595 4.54824,9.81955095 2.36169,9.423989 2.50142,14.546054 0.69078,25.322278 -0.54305,3.232031 -0.24686,4.23578 1.91806,6.5 2.61855,2.738656 4.74936,10.757937 6.23977,23.483238 0.60769,5.188562 0.43689,6.06424 -1.60723,8.240109 -2.65873,2.83009 -2.44322,3.588358 4.1396,14.565181 4.82857,8.051603 6.0844,15.156914 3.40238,19.250184 -0.95912,1.46382 -1.8473,4.79393 -1.97372,7.40025 -0.12641,2.60632 -0.85885,6.23981 -1.62762,8.07444 -1.3215,3.15363 -1.26134,3.45681 1.10222,5.55523 5.44106,4.83071 7.50159,8.81617 7.29455,14.10909 -0.8713,22.27484 -1.07386,24.06315 -3.16725,27.96144 C 383.95728,172.64023 383,175.19093 383,176.12965 383,181.3035 387.73537,181 307.01125,181 l -74.77476,0 -0.47015,-12.75 z m 57.21835,-51.12244 c -0.008,-1.44516 -0.46698,-3.30256 -1.01901,-4.12756 -0.86874,-1.29833 -1.2028,-1.23902 -2.48468,0.44113 -1.77971,2.33264 -1.92044,5.71943 -0.30479,7.33508 1.68759,1.68759 3.82763,-0.36263 3.80848,-3.64865 z m -2.29761,-59.889219 c -0.25029,-0.956088 -0.446,0.06166 -0.4349,2.261659 0.0111,2.2 0.21589,2.982253 0.45508,1.738341 0.23919,-1.243913 0.23011,-3.043913 -0.0202,-4 z M 363,10.940983 C 363,9.8085237 362.55,9.1600813 362,9.5 c -0.55,0.3399187 -1,1.266476 -1,2.059017 C 361,12.351558 361.45,13 362,13 c 0.55,0 1,-0.926558 1,-2.059017 z m 62.62036,137.253767 c -0.74587,-1.20684 -0.42227,-7.19914 0.41678,-7.7177 1.08353,-0.66966 3.28461,5.24209 2.60813,7.00499 -0.62879,1.63859 -2.22085,2.0137 -3.02491,0.71271 z m 86.95107,-10.76618 C 510.71922,135.57636 510.4776,128.9224 512.2,127.2 c 0.66,-0.66 3.55948,-1.2 6.4433,-1.2 4.28465,0 5.52791,0.40634 6.8,2.22251 1.59896,2.28283 2.02382,6.39662 0.94971,9.1957 -0.85146,2.21888 -11.60501,2.22694 -13.82158,0.0104 z M 467.65499,78.171259 c -3.4302,-3.79032 -0.74793,-10.971918 3.17883,-8.511143 1.90208,1.191969 2.60927,4.438336 1.73001,7.941597 -0.71789,2.860284 -2.63451,3.082659 -4.90884,0.569546 z M 213.63948,78.306147 C 212.30867,76.975336 212.98759,72 214.5,72 c 0.99331,0 1.5,0.993443 1.5,2.940983 0,2.935479 -1.15031,4.57537 -2.36052,3.365164 z m 2.81507,-15.760692 c -3.36,-3.359997 -3.14592,-6.78592 0.62218,-9.956561 4.03541,-3.395575 7.67317,-3.433563 8.51263,-0.08889 0.82241,3.276769 -0.057,6.553498 -2.64021,9.837518 -2.58291,3.283637 -3.39297,3.309573 -6.4946,0.207937 z M 0.07028526,45.25 C 0.10894216,36.0375 0.48372331,27.623007 0.90313228,26.551126 1.5785117,24.825063 1.7900025,24.958844 2.7529888,27.721268 3.3510009,29.436726 4.7762197,31.77622 5.9201418,32.920142 7.5746234,34.574623 8,36.254809 8,41.135329 8,46.363198 7.6373184,47.606781 5.5479158,49.543174 3.5279454,51.415219 3.1983146,52.447218 3.6773847,55.399381 4.2378763,58.853285 2.9031131,62 0.87755528,62 0.39489988,62 0.03162837,54.4625 0.07028526,45.25 z M 417.70124,24.367903 C 417.31556,23.982223 417,22.391667 417,20.833333 c 0,-3.246706 2.83262,-3.944869 5.06957,-1.24951 2.12477,2.560191 -2.03574,7.116671 -4.36833,4.78408 z M 5,17.5 C 5,16.675 5.4358768,16 5.9686152,16 6.5013536,16 6.6782086,16.675 6.3616264,17.5 6.0450442,18.325 5.6091674,19 5.3930112,19 5.176855,19 5,18.325 5,17.5 z m 613.40804,-5 c -0.99715,-1.521851 -2.58089,-2.5 -4.0478,-2.5 -2.43501,0 -3.29852,-1.3227641 -4.73287,-7.25 L 608.9619,0 616.48095,0 624,0 l 0,7.5 c 0,6.804181 -0.18341,7.5 -1.97695,7.5 -1.08732,0 -2.71407,-1.125 -3.61501,-2.5 z"
       id="path3025"
       inkscape:connector-curvature="0" />
    <path
       style="fill:#1cccfc;fill-opacity:1"
       d="m 234.5742,157.24991 c 0.0408,-13.06245 0.65633,-28.46854 1.36781,-34.23575 0.71148,-5.76721 1.05288,-12.96721 0.75866,-16 -0.29422,-3.03279 -0.12606,-8.88916 0.37368,-13.01416 2.1326,-17.603057 2.83446,-33.490501 1.7132,-38.780036 -1.02297,-4.825802 -0.93293,-5.532055 1.0466,-8.209508 2.51764,-3.405295 2.73852,-7.637299 0.76092,-14.578955 -2.82578,-9.918838 -2.86284,-13.599973 -0.19624,-19.489659 C 241.75394,9.9488289 243.16865,5.8125 243.54263,3.75 L 244.22258,0 263.5439,0 c 18.29765,0 19.35421,0.10362333 19.94208,1.9558406 0.34142,1.0757123 0.0926,3.7186427 -0.5529,5.8731788 -0.89115,2.9744096 -0.8992,6.2947526 -0.0334,13.7941596 C 283.5268,27.05543 284.01274,40.5 283.97953,51.5 c -0.0332,11 0.22248,21.379595 0.5682,23.065766 0.34572,1.686171 0.13113,4.913137 -0.47686,7.171036 -0.83743,3.109986 -0.79937,5.249597 0.15698,8.825301 l 1.26242,4.720032 1.28814,-6.891068 C 289.21979,75.330587 290.36773,58.890514 289.24962,53 c -0.59405,-3.129595 -0.83218,-11.96474 -0.55253,-20.5 0.27031,-8.25 0.50378,-18.9375 0.51883,-23.75 L 289.24328,0 315.62164,0 342,0 l 0.02,3.75 c 0.011,2.0625 0.70786,7.575 1.54859,12.25 0.84072,4.675 1.78861,12.221097 2.10641,16.769105 0.3178,4.548008 0.93466,8.489644 1.37079,8.759191 0.43614,0.269548 1.55434,-0.271272 2.48489,-1.201821 1.79645,-1.796449 1.8017,-0.581111 -0.13034,-30.145008 l -0.67432,-10.31853206 3.88699,0.31853253 c 3.65213,0.29928546 3.93672,0.56022926 4.70986,4.31853253 0.45258,2.2 1.46508,6.580706 2.25,9.734902 0.78493,3.154196 1.42714,7.338183 1.42714,9.297749 0,2.515857 0.73466,4.243705 2.5,5.879769 1.96222,1.818526 2.5,3.297527 2.5,6.875525 0,3.388626 0.63385,5.311889 2.46967,7.493636 2.15961,2.56656 2.39368,3.576594 1.86442,8.045341 -0.45387,3.832252 -0.19619,5.734594 1.03034,7.60651 C 373.59239,62.833737 373.42901,67.57099 371,70 c -1.1,1.1 -2.36111,2 -2.80246,2 -1.11424,0 -4.20851,8.929427 -4.20249,12.127555 0.006,2.990704 2.29253,5.359805 4.39502,4.553004 0.77854,-0.298755 2.19357,0.02572 3.1445,0.721062 1.93589,1.415558 5.46336,9.953049 5.46462,13.225939 9.5e-4,2.48845 -2.42993,4.84229 -3.99919,3.87244 -1.46568,-0.90584 -4,1.32007 -4,3.51324 0,0.97259 0.89012,3.72999 1.97804,6.12756 2.19146,4.82955 2.80002,17.53687 1.00083,20.89868 -0.83672,1.56343 -0.34011,2.66204 2.75,6.08358 3.27528,3.62656 3.76192,4.79478 3.70109,8.8847 -0.18121,12.18344 -6.67773,14.85416 -10.24672,4.21244 -0.60499,-1.80388 -1.7837,-3.96352 -2.61936,-4.79918 -1.20524,-1.20524 -1.2778,-1.90624 -0.35094,-3.39039 1.64341,-2.63151 -0.65364,-19.41129 -3.26324,-23.83779 C 360.87737,122.3739 360,120.04593 360,119.01957 c 0,-1.02637 -1.13084,-3.21004 -2.51297,-4.85262 -2.22843,-2.64834 -2.2923,-2.92879 -0.56405,-2.47684 2.90609,0.75996 3.68434,-5.17138 1.91184,-14.570828 -1.64522,-8.724547 -3.76947,-10.227346 -5.11594,-3.619282 -3.31254,16.2569 -3.19164,14.64866 -1.84179,24.5 0.56521,4.125 0.81755,12.45 0.56075,18.5 -0.25679,6.05 -0.41782,15.85161 -0.35782,21.78135 0.06,5.92975 -0.20265,13.46725 -0.58366,16.75 L 350.80363,181 l -29.3565,0 -29.3565,0 -0.63429,-3.38106 c -0.34886,-1.85958 -0.34847,-8.72208 8.8e-4,-15.25 0.94181,-17.5989 0.74178,-23.76798 -0.92593,-28.55608 -1.71515,-4.92429 -1.9565,-10.56428 -0.60428,-14.12089 0.66196,-1.74107 0.27528,-5.26234 -1.35236,-12.3151 L 286.29528,97.5 285.55244,103 c -0.40856,3.025 -1.68124,7.41546 -2.82818,9.75659 -2.06708,4.21929 -2.06901,4.30691 -0.22009,10 1.49739,4.61066 1.92419,9.51862 2.16405,24.8849 0.16432,10.52783 0.71706,20.24167 1.2283,21.58634 1.11611,2.93559 -1.69226,10.09607 -4.36144,11.12033 -0.93426,0.35851 -11.89935,0.6518 -24.36687,0.65175 l -22.66821,-9e-5 0.0742,-23.74991 z M 352.69246,87.75 c 2.74194,-5.987279 3.36913,-9.520721 2.1607,-12.172941 -1.37702,-3.02222 -2.81242,-1.766901 -2.83785,2.481811 -0.008,1.407379 -0.676,3.432379 -1.48351,4.5 C 348.35203,85.440788 348.63748,90 350.99769,90 c 0.36539,0 1.12804,-1.0125 1.69477,-2.25 z M 219.3229,56.399075 c -0.63132,-1.645199 1.45445,-3.654712 2.87935,-2.774075 0.43876,0.271169 0.79775,1.366476 0.79775,2.434017 0,2.339795 -2.81001,2.599664 -3.6771,0.340058 z M 0,41.5 C 0,34.888871 1.0393086,33.439309 3.8,36.2 5.6428679,38.042868 5.3492146,46.652016 3.4182125,47.393011 0.36087989,48.56622 0,47.944062 0,41.5 z M 617.95818,7.4067828 C 616.33118,3.7805133 615,0.63051334 615,0.4067828 615,0.18305226 617.025,0 619.5,0 l 4.5,0 0,7 c 0,9.329735 -1.9786,9.46295 -6.04182,0.4067828 z"
       id="path3023"
       inkscape:connector-curvature="0" />
    <path
       style="fill:#14ccfc"
       d="m 236.57577,180.1226 c -1.04819,-1.69602 -1.39145,-44.61362 -0.39289,-49.1226 0.54812,-2.475 1.38864,-13.5 1.86782,-24.5 0.47918,-11 1.34354,-26.696919 1.92081,-34.882043 0.63389,-8.987982 0.69548,-16.164476 0.15551,-18.120084 -0.70799,-2.564154 -0.48664,-3.881528 1.06363,-6.33001 1.81127,-2.860695 1.88764,-3.973688 1.02099,-14.879916 C 241.69645,25.804576 241.11814,20.05 240.92651,19.5 c -0.19164,-0.55 0.69926,-5.172235 1.97978,-10.2716341 l 2.32822,-9.27163414 18.56966,0.27163412 L 282.37383,0.5 l 0.31997,15 c 0.58525,27.436443 0.51744,67.259087 -0.11795,69.261003 -0.34473,1.086158 -0.12389,3.27177 0.49076,4.856915 2.01066,5.185365 1.42822,17.055522 -1.10195,22.457522 -2.25555,4.81571 -2.25593,4.82557 -0.42902,11.12227 1.49853,5.16486 1.85453,10.25947 1.97251,28.22822 0.14329,21.82402 0.13232,21.94371 -2.35973,25.75 L 278.64474,181 l -20.76336,0 c -11.41984,0 -21.00737,-0.39483 -21.30561,-0.8774 z m 56.77034,-1.8726 c -0.66639,-2.64822 -0.84366,-23.04209 -0.26295,-30.25 0.15509,-1.925 -0.33254,-6.425 -1.08363,-10 -0.75109,-3.575 -1.39963,-11.225 -1.4412,-17 -0.0416,-5.775 -0.41807,-11.03388 -0.83666,-11.6864 -1.76466,-2.75078 -2.55418,-19.947004 -1.21256,-26.41034 1.42791,-6.879108 1.54814,-12.381734 1.20504,-55.15326 L 289.49155,0 315.24578,0 341,0 l 0,3.5469402 c 0,1.9508171 0.94296,8.8133168 2.09547,15.2499998 1.34941,7.536352 1.87115,13.394625 1.46541,16.45417 -0.71721,5.408303 0.58211,8.74889 3.40288,8.74889 5.01776,0 5.54329,-5.207947 2.62362,-26 C 349.93091,13.325 349.5755,7.3625 349.79759,4.75 350.17605,0.29810316 350.37889,0 353.0298,0 c 2.65187,0 2.89555,0.35887916 3.90426,5.75 0.59171,3.1625 1.52362,7.921831 2.07089,10.57629 0.54728,2.65446 0.99673,6.25446 0.99879,8 0.002,1.745541 0.90205,4.647086 2,6.44788 1.09794,1.800793 1.99626,3.863973 1.99626,4.584844 0,0.720871 0.89929,4.050044 1.99842,7.398162 1.09913,3.348118 1.71853,6.816866 1.37644,7.708327 -0.56979,1.484848 -0.77766,1.479943 -2.47757,-0.05845 -1.70998,-1.547515 -1.90486,-1.550903 -2.48343,-0.04317 -0.8591,2.238776 0.23635,4.725312 2.34119,5.314194 1.92211,0.53776 6.24495,6.657189 6.24495,8.840374 0,0.758873 -1.51698,2.536823 -3.37106,3.951001 -2.48282,1.893742 -3.57795,3.685698 -4.15627,6.800891 -1.27195,6.851528 -0.91251,13.409426 0.88536,16.153336 1.08012,1.64847 1.88515,5.776255 2.3024,11.805531 0.35287,5.09893 1.24863,11.01487 1.99058,13.14652 1.56839,4.50607 1.69301,7.53197 0.39473,9.58451 -0.79177,1.25175 -1.21253,1.1988 -2.94705,-0.37092 -2.85811,-2.58656 -4.12679,-7.15449 -4.21167,-15.16432 -0.0765,-7.21704 -2.35886,-19.47517 -4.26849,-22.924998 -0.6089,-1.1 -1.19653,-4.475 -1.30585,-7.5 -0.40147,-11.109244 -1.87933,-25.899987 -2.66653,-26.687181 -0.44532,-0.445321 -1.49263,0.08962 -2.32736,1.188753 -1.22545,1.613616 -1.41912,4.14387 -1.0058,13.140251 0.38839,8.453748 0.17113,11.798648 -0.90055,13.864306 -2.00633,3.867214 -1.77937,8.851831 0.49685,10.911778 1.59341,1.44202 1.74506,2.253506 0.91662,4.904988 -2.80527,8.978503 -2.95301,11.121153 -1.33055,19.297523 1.62239,8.176 1.46933,22.89669 -0.32536,31.29312 -0.42162,1.97255 -0.4606,4.93646 -0.0866,6.58646 0.91205,4.02386 1.06737,16.12092 0.28069,21.86043 L 348.72815,181 l -4.04962,0 c -2.72193,0 -4.77367,-0.68021 -6.25804,-2.0747 -1.91758,-1.80147 -2.48577,-1.90148 -4.31445,-0.75945 -1.15832,0.72338 -2.10604,1.657 -2.10604,2.0747 0,0.4177 -8.54143,0.75945 -18.98095,0.75945 l -18.98095,0 -0.69199,-2.75 z M 339,149.12244 c 0,-1.03265 -0.675,-2.43775 -1.5,-3.12244 -1.26408,-1.04909 -1.5,-0.85864 -1.5,1.21089 0,1.35068 0.3,2.75578 0.66667,3.12244 1.24181,1.24182 2.33333,0.67537 2.33333,-1.21089 z m -4.91534,-32.43778 C 333.30511,115.90511 333,116.31262 333,118.13333 c 0,3.29727 1.40143,4.70756 1.83466,1.84627 0.18407,-1.21565 -0.15343,-2.69837 -0.75,-3.29494 z m 0.21583,-26.343976 C 334.01753,89.603308 333.38417,89 332.89301,89 c -1.04472,0 -1.20762,3.352059 -0.21132,4.348362 0.96515,0.965144 2.23672,-1.397402 1.6188,-3.007678 z m 37.212,61.679536 c -1.5901,-2.57285 -2.33001,-7.01497 -1.27686,-7.66584 1.51042,-0.9335 4.92411,3.54645 4.56174,5.98657 -0.34046,2.29253 -2.28993,3.28912 -3.28488,1.67927 z M 0,42.559017 C 0,37.60151 1.3541394,35.924681 2.9498267,38.90625 4.5015987,41.805763 4.2251052,45.699641 2.4182125,46.393011 0.00918429,47.317442 0,47.302881 0,42.559017 z M 621.21157,12.75 C 620.64324,12.0625 619.39191,9.475 618.43084,7 617.46976,4.525 616.24955,1.9375 615.71927,1.25 614.97974,0.29122562 615.83205,0 619.37756,0 L 624,0 l 0,7 c 0,6.838481 -0.69829,8.278425 -2.78843,5.75 z"
       id="path3021"
       inkscape:connector-curvature="0" />
    <path
       style="fill:#04c8fc;fill-opacity:1"
       d="m 238.5904,177.538 c -1.29694,-2.40827 -1.68703,-4.55514 -1.28161,-7.05342 0.32054,-1.97527 0.13584,-10.32525 -0.41044,-18.55549 -0.7121,-10.72841 -0.67483,-16.5867 0.13167,-20.69659 0.61871,-3.15287 1.57774,-15.1825 2.13119,-26.7325 0.55345,-11.55 1.18454,-24.375 1.40243,-28.5 0.21789,-4.125 0.55565,-12.019241 0.75059,-17.542758 0.19494,-5.523516 0.80814,-10.853486 1.36267,-11.844377 0.61511,-1.099137 0.82182,-7.609338 0.53014,-16.696362 -0.32153,-10.017222 -0.0411,-17.354299 0.85645,-22.4056224 L 245.39804,0 l 18.19257,0 18.19257,0 0.61005,2.430602 c 0.33552,1.3368311 0.11691,3.6993311 -0.48581,5.25 -0.71877,1.8492556 -0.82308,5.400115 -0.30315,10.319398 0.43599,4.125 0.94057,23.25 1.12129,42.5 0.18072,19.25 0.4289,37.57123 0.55151,40.71384 0.17423,4.46563 -0.31326,6.69493 -2.23154,10.20489 l -2.45446,4.49103 1.90464,7.29512 c 1.35268,5.18095 1.89626,10.62789 1.8757,18.79512 -0.0599,23.79336 -0.4768,29.31137 -2.58756,34.25 l -2.03014,4.75 -18.64945,0 -18.64945,0 -1.86441,-3.462 z m 55.3699,-5.288 c -0.68544,-4.8125 -1.16346,-11.45 -1.06225,-14.75 0.45868,-14.95512 0.26966,-18.64854 -1.32001,-25.79382 -1.2437,-5.59018 -1.44116,-8.54239 -0.74099,-11.07821 0.66175,-2.39664 0.55358,-5.40047 -0.35263,-9.79253 C 287.98063,98.700535 287.70438,90.09123 289.53068,81.112832 291.16232,73.091449 291.19613,68.53822 289.7877,46.5 289.68225,44.85 289.68688,33.7125 289.798,21.75 L 290,0 l 15.97141,0 15.97141,0 0.9384,3.25 c 0.85875,2.9741372 0.95611,3.0377978 1.14701,0.75 0.11474,-1.375 0.15532,-2.8375 0.0902,-3.25 C 324.05329,0.3375 327.6,0 332,0 l 8,0 0,3.3895322 c 0,1.8642427 0.73078,7.1517428 1.62395,11.7499998 0.89317,4.598257 1.57901,12.410468 1.52409,17.360468 -0.12504,11.268695 1.07621,14.135788 5.72967,13.675407 2.93434,-0.290303 3.24615,-0.07902 2.95162,2 -0.18172,1.282677 -1.37896,2.772807 -2.67112,3.324593 -2.13597,0.912107 -2.27806,1.395517 -1.61659,5.5 0.85065,5.278337 0.79707,21.284959 -0.0959,28.640807 -0.43989,3.623769 -0.18848,5.972113 0.85196,7.957864 1.31118,2.502485 1.30144,3.083476 -0.0873,5.202921 -1.79608,2.741158 -1.88565,12.032298 -0.18542,19.231958 0.78723,3.33352 0.75134,6.11286 -0.13559,10.5 -0.66341,3.28155 -1.33054,11.34731 -1.48251,17.92392 -0.15197,6.57661 -0.54488,14.00161 -0.87315,16.5 -0.32826,2.49839 -0.14758,6.06251 0.40152,7.92026 0.69337,2.34584 0.66119,4.00776 -0.10535,5.44005 -1.09737,2.05046 -1.11491,2.0485 -3.0493,-0.34036 -1.35302,-1.67092 -1.77149,-3.27314 -1.37397,-5.26073 0.83538,-4.17688 -1.65713,-8.31678 -5.46591,-9.07854 -3.79526,-0.75906 -4.9407,-0.17643 -4.9407,2.51314 0,1.11829 -0.9,3.17742 -2,4.57584 -1.1,1.39842 -2.00614,3.7194 -2.01365,5.15773 -0.008,1.43833 -0.285,3.62764 -0.61664,4.86514 -0.59195,2.20886 -0.88237,2.25 -15.88305,2.25 l -15.28008,0 -1.24628,-8.75 z m 46.70396,-21.81746 C 341.53639,148.1598 335.88665,138 333.75067,138 c -0.94348,0 -0.008,8.07958 1.36088,11.75 0.97084,2.60373 4.6423,3.05502 5.55271,0.68254 z M 336.52573,121.75 c 0.31011,-1.2375 -0.13132,-4.21908 -0.98095,-6.62573 C 334.69515,112.71762 334,109.68012 334,108.37427 334,107.06842 333.59567,106 333.10149,106 c -1.46426,0 -2.44624,13.48732 -1.15732,15.89568 1.47811,2.76187 3.87202,2.68575 4.58156,-0.14568 z M 335.25,91.592365 c 0,-1.422414 -0.59507,-3.303228 -1.32239,-4.179586 -1.20353,-1.450172 -1.43946,-1.43327 -2.625,0.188051 -1.63453,2.235356 -1.66008,4.853913 -0.0722,7.396573 1.05238,1.685132 1.43227,1.768449 2.625,0.575717 0.767,-0.767002 1.39455,-2.558342 1.39455,-3.980755 z m -3.64583,-20.321532 c -0.33229,-0.332291 -0.56864,0.258334 -0.52522,1.3125 0.048,1.164943 0.28494,1.4019 0.60416,0.604167 0.28887,-0.721875 0.25335,-1.584375 -0.0789,-1.916667 z M 332,53.5 c 0,-1.310081 -0.39884,-2.628462 -0.88631,-2.929736 -1.09182,-0.674784 -2.176,3.103779 -1.44051,5.020444 C 330.46061,57.642718 332,56.259537 332,53.5 z M 329,39.0651 C 329,37.077904 326.99957,33 326.02475,33 c -1.42,0 -1.28899,4.335756 0.17525,5.8 1.43333,1.433327 2.8,1.562721 2.8,0.2651 z m 30.07895,44.518233 c -0.0434,-1.054166 0.19293,-1.644791 0.52522,-1.3125 0.33229,0.332292 0.36781,1.194792 0.0789,1.916667 -0.31922,0.797733 -0.55618,0.560776 -0.60416,-0.604167 z M 358.02865,74.75 c -0.8692,-1.346481 -1.71881,-6.265638 -2.11576,-12.25 -0.81108,-12.227591 -3.53994,-37.842625 -4.90054,-46 -0.55042,-3.3 -1.00337,-8.3625 -1.00656,-11.25 -0.005,-4.90106664 0.15645,-5.25 2.43519,-5.25 3.14126,0 3.3248,0.36237583 4.62614,9.133651 2.60534,17.560515 3.04962,20.593249 3.60381,24.600341 0.32206,2.328695 1.20285,4.746295 1.95732,5.372444 C 364.4469,40.61578 364.37569,44.443317 362.5,46 c -2.92333,2.426146 -1.42529,11.302189 2.64005,15.642625 1.98488,2.119192 1.98564,2.162937 0.069,4 C 362.52588,68.214393 361,71.401569 361,74.434259 c 0,3.163376 -1.06038,3.276053 -2.97135,0.315741 z M 621.2433,12.017985 c -0.68078,-1.090108 -2.09579,-4.2401078 -3.14447,-6.9999997 L 616.19215,0 620.09607,0 624,0 l 0,7 c 0,7.247276 -0.63857,8.40965 -2.7567,5.017985 z"
       id="path3019"
       inkscape:connector-curvature="0" />
    <path
       style="fill:#04c8fc;fill-opacity:1"
       d="m 252.75327,180.04295 c -4.97323,-0.96505 -7.74478,-3.61528 -7.78889,-7.44794 -0.0421,-3.6602 -2.27657,-13.41647 -3.70181,-16.16327 -0.55129,-1.06246 -0.80312,-5.53174 -0.55963,-9.93174 0.24348,-4.4 0.58597,-19.025 0.76108,-32.5 0.3165,-24.354527 1.99382,-56.132952 3.11412,-59 0.32237,-0.825 0.54245,-11.132934 0.48907,-22.90652 -0.0631,-13.907174 0.34004,-23.2866028 1.15063,-26.7731241 l 1.24768,-5.36660366 16.50448,0.27312388 c 18.60089,0.30781642 18.50896,0.26180041 15.95906,7.98806738 -1.08258,3.2802625 -1.00446,5.6495775 0.50329,15.2635005 2.17083,13.841955 1.52367,24.552981 -1.66287,27.521692 -1.75278,1.632958 -1.92705,2.63426 -1.33823,7.688663 0.37234,3.196161 1.32828,8.132669 2.1243,10.970019 0.87315,3.112282 1.36169,8.666169 1.23149,14 -0.1187,4.86265 0.15151,11.091182 0.60048,13.841182 0.75964,4.65294 0.60669,5.26267 -2.20349,8.78416 -3.93018,4.92501 -4.78743,10.04778 -2.64148,15.78507 0.91149,2.43692 2.32986,7.35577 3.15193,10.93077 1.34296,5.84026 1.32998,7.51498 -0.12788,16.5 -0.89239,5.5 -1.85229,11.44626 -2.13311,13.21391 -0.34171,2.15094 -1.36164,3.63927 -3.08378,4.5 -1.56685,0.78311 -3.40946,3.24266 -4.71146,6.28892 -1.17604,2.75156 -2.50231,5.56406 -2.94727,6.25 -0.8766,1.35137 -7.73326,1.49409 -13.93771,0.29012 z M 298,166.0451 c -3.27625,-2.71564 -3.48539,-3.24133 -3.27154,-8.2231 0.12565,-2.9271 0.31534,-7.347 0.42154,-9.822 0.1062,-2.475 -0.41443,-8.1 -1.15695,-12.5 -0.74252,-4.4 -1.39546,-11.375 -1.45098,-15.5 -0.0555,-4.125 -0.6917,-11.14231 -1.41374,-15.59401 -1.35779,-8.371418 -1.26723,-11.978671 0.84977,-33.85087 0.96264,-9.945635 0.98436,-14.145017 0.0937,-18.124726 -0.7331,-3.2758 -1.09244,-13.864193 -0.97757,-28.80512 L 291.2759,0 l 6.00181,0 c 4.53115,0 6.33511,0.42881185 7.36205,1.75 1.29317,1.663718 1.42931,1.6609721 2.76121,-0.055694 1.09998,-1.41776222 2.5306,-1.74001934 6.65903,-1.49999999 6.15951,0.35810234 5.46799,-1.61012371 6.95862,19.80569399 0.72803,10.459476 1.765,17.643476 3.18879,22.091353 1.80093,5.626088 1.9466,7.239931 0.99472,11.020189 -1.19774,4.756667 -0.25946,15.044307 1.70729,18.719199 1.49504,2.793508 1.34504,10.831479 -0.29241,15.669259 -1.03519,3.058427 -1.13747,5.970416 -0.43453,12.37074 0.53505,4.87159 0.5555,10.77479 0.0489,14.12175 -0.48713,3.21849 -0.49185,6.77444 -0.0107,8.07508 0.50149,1.35565 0.46022,3.38835 -0.099,4.87824 -0.52732,1.40481 -1.20238,7.81296 -1.50012,14.24035 -0.32211,6.95336 -1.15166,13.14682 -2.04831,15.29282 -1.50426,3.60019 -1.51228,3.6039 -4.47675,2.07091 -1.63338,-0.84465 -3.56079,-1.30441 -4.28313,-1.02167 -0.72234,0.28274 -3.02784,2.97955 -5.12333,5.99292 -2.10858,3.0322 -4.56468,5.46685 -5.5,5.45196 -0.92951,-0.0148 -3.26502,-1.3324 -5.19002,-2.928 z m 39.50409,-66.03223 c -0.3661,-1.153467 -0.38033,-3.785928 -0.0316,-5.849909 0.35674,-2.111563 0.12202,-5.045036 -0.53673,-6.707828 C 336.29184,85.82981 335.62526,81.575 335.45445,78 c -0.1708,-3.575 -1.00987,-8.446239 -1.8646,-10.824975 -1.38173,-3.845441 -1.38971,-4.718265 -0.0719,-7.872123 1.85117,-4.430478 1.85498,-6.349195 0.0242,-12.168688 C 329.73109,35.020461 327.61967,23.006921 327.32318,11.75 L 327.0137,0 332.50685,0 C 337.93782,0 338,0.03379847 338,2.9856488 c 0,1.6421068 -0.53265,4.9771679 -1.18367,7.4112472 -0.95955,3.587646 -0.84771,7.424542 0.59068,20.264351 0.97589,8.711314 2.42177,17.171907 3.21307,18.801318 0.96239,1.981743 1.22585,4.382016 0.79577,7.25 C 340.89295,60.199518 341.06315,61 342.32744,61 c 0.85499,0 1.84129,0.463989 2.19177,1.031087 0.68291,1.104959 -2.18454,32.853544 -3.33155,36.887199 -0.89994,3.164814 -2.84323,3.742274 -3.68357,1.094584 z m 18.1029,-66.594657 c -0.33385,-0.869984 -0.59268,-2.782484 -0.57519,-4.25 0.0305,-2.562051 0.0902,-2.59098 1.5,-0.727083 1.60914,2.127467 1.99775,6.55887 0.57519,6.55887 -0.49116,0 -1.16616,-0.711804 -1.5,-1.581787 z M 354.07078,19.5 c -0.66573,-2.2 -1.0665,-6.7 -0.8906,-10 l 0.31982,-6 1.34733,8.708015 c 1.49533,9.664609 1.09083,13.462973 -0.77655,7.291985 z M 620.12314,7.0646185 C 617.35286,0.62491575 617.43042,0 621,0 c 3,0 3,0 3,6 0,3.3 -0.39459,6 -0.87686,6 -0.48227,0 -1.83227,-2.2209217 -3,-4.9353815 z"
       id="path3017"
       inkscape:connector-curvature="0" />
    <path
       style="fill:#00c0f8;fill-opacity:1"
       d="m 253.64626,152.15266 c -3.70449,-3.86665 -4.01728,-8.29188 -0.64626,-9.14303 2.14474,-0.54152 2.45701,-1.11994 2.19746,-4.07043 -0.22053,-2.50701 -1.35219,-4.38787 -4.17513,-6.9392 -2.94502,-2.66167 -3.98842,-4.45809 -4.35619,-7.5 -0.26598,-2.2 -0.99263,-7.53058 -1.61477,-11.84574 -0.80869,-5.60902 -0.83471,-9.97721 -0.0913,-15.322355 0.57194,-4.112143 1.06754,-13.181562 1.10131,-20.154264 0.0338,-6.972703 0.59628,-19.877641 1.25,-28.677641 0.72113,-9.707351 0.86609,-18.753034 0.36858,-23 -0.45101,-3.85 -0.52114,-9.925 -0.15585,-13.5 0.36529,-3.575 0.68638,-7.7375 0.71353,-9.25 l 0.0494,-2.75 9.61974,0 9.61975,0 0.0512,8.25 c 0.0282,4.5375 0.66929,11.175 1.42473,14.75 1.24727,5.902467 2.38914,36.639903 2.00606,54 -0.0789,3.575 -0.11508,8.299298 -0.0804,10.498439 0.0547,3.470598 -0.43229,5.861367 -2.52149,12.378775 -0.31954,0.996836 -1.11395,0.651596 -2.87629,-1.25 -3.80895,-4.109928 -4.89523,-3.435728 -4.10176,2.545756 0.37742,2.84514 1.09513,5.93704 1.59492,6.87091 0.92573,1.72974 1.27805,6.72388 1.23144,17.45612 -0.0356,8.19688 -3.08765,16.71887 -6.30976,17.61818 -2.69131,0.75116 -2.57171,0.92519 0.89672,1.3048 4.42439,0.48425 5.51935,5.23093 1.96956,8.53806 -2.89282,2.69507 -3.91965,2.57922 -7.16518,-0.80838 z M 293.4868,98.970731 c -1.75969,-3.902296 -1.7567,-4.540432 0.0948,-20.25 2.04508,-17.352182 2.17634,-25.597052 0.47861,-30.062409 C 293.42514,46.98801 293,36.672807 293,22.9349 293,1.0801293 293.08936,0 294.89738,0 c 1.68498,0 1.93686,0.94230531 2.25,8.4172355 0.19394,4.6294795 0.6908,8.7551575 1.10413,9.1681735 0.41333,0.413016 1.87145,0.151559 3.24028,-0.581016 2.13233,-1.14119 2.7409,-1.10379 4.24912,0.261135 1.29948,1.176011 2.23205,1.329111 3.56208,0.584789 3.24042,-1.813433 4.75526,0.671965 4.28098,7.023806 -0.23104,3.094233 -0.45695,6.603851 -0.50202,7.799152 -0.0451,1.195301 -1.14745,3.445301 -2.44974,5 -4.43963,5.300158 -3.77799,19.750065 0.95877,20.938916 2.23086,0.559911 4.0289,4.575811 2.8806,6.433798 C 314.14729,65.570695 312.79936,66 311.47617,66 c -3.98801,0 -4.92208,3.22581 -4.95043,17.096194 C 306.49893,96.21515 305.71215,99 302.03254,99 c -0.94741,0 -2.53705,0.9 -3.53254,2 -2.4933,2.75506 -2.9367,2.57558 -5.0132,-2.029269 z M 330.6936,9.9921172 C 330.32714,8.6214528 330.02116,5.8125 330.01365,3.75 330.00133,0.36557976 330.25591,0 332.625,0 c 2.36189,0 2.56699,0.29003709 2.04628,2.8936175 -0.3183,1.5914897 -1.19358,4.4004424 -1.94506,6.2421173 -1.35486,3.3204032 -1.37192,3.3275882 -2.03262,0.8563824 z M 622.66667,10.333333 C 622.3,9.9666667 621.99723,8.9541667 621.99384,8.0833333 621.99045,7.2125 621.31545,5.2110619 620.49384,3.6356931 618.57318,-0.04700849 618.56017,0 621.5,0 c 2.36364,0 2.5,0.3 2.5,5.5 0,5.561768 -0.13079,6.035878 -1.33333,4.833333 z"
       id="path3015"
       inkscape:connector-curvature="0" />
  </g>
</svg>
